<?xml version="1.0" encoding="UTF-8" standalone="no"?>
<!-- Created with Inkscape (http://www.inkscape.org/) -->

<svg
   xmlns:dc="http://purl.org/dc/elements/1.1/"
   xmlns:cc="http://creativecommons.org/ns#"
   xmlns:rdf="http://www.w3.org/1999/02/22-rdf-syntax-ns#"
   xmlns:svg="http://www.w3.org/2000/svg"
   xmlns="http://www.w3.org/2000/svg"
   xmlns:sodipodi="http://sodipodi.sourceforge.net/DTD/sodipodi-0.dtd"
   xmlns:inkscape="http://www.inkscape.org/namespaces/inkscape"
   id="svg2516"
   sodipodi:version="0.32"
   inkscape:version="0.92.3 (2405546, 2018-03-11)"
   width="371"
   height="387"
   version="1.0"
   sodipodi:docname="choropleth.svg"
   inkscape:output_extension="org.inkscape.output.svg.inkscape"
   inkscape:export-filename="C:\Users\cuencapauta\Documents\Erick\p2kk\Dropbox\Workspaces\htdocs\globmig\evoflow\img\choropleth.png"
   inkscape:export-xdpi="24.110001"
   inkscape:export-ydpi="24.110001">
  <metadata
     id="metadata2521">
    <rdf:RDF>
      <cc:Work
         rdf:about="">
        <dc:format>image/svg+xml</dc:format>
        <dc:type
           rdf:resource="http://purl.org/dc/dcmitype/StillImage" />
      </cc:Work>
    </rdf:RDF>
  </metadata>
  <defs
     id="defs2519">
    <inkscape:perspective
       sodipodi:type="inkscape:persp3d"
       inkscape:vp_x="0 : 526.18109 : 1"
       inkscape:vp_y="0 : 1000 : 0"
       inkscape:vp_z="744.09448 : 526.18109 : 1"
       inkscape:persp3d-origin="372.04724 : 350.78739 : 1"
       id="perspective2523" />
    <clipPath
       clipPathUnits="userSpaceOnUse"
       id="clipPath4876">
      <rect
         style="fill:none;fill-opacity:1;stroke:#000000;stroke-width:0.88531286;stroke-opacity:1"
         id="rect4878"
         width="199.11469"
         height="199.11469"
         x="-310.07587"
         y="-226.65044"
         transform="rotate(-159.53576)" />
    </clipPath>
  </defs>
  <sodipodi:namedview
     inkscape:window-height="2066"
     inkscape:window-width="3840"
     inkscape:pageshadow="2"
     inkscape:pageopacity="0.0"
     guidetolerance="10.0"
     gridtolerance="10.0"
     objecttolerance="10.0"
     borderopacity="1.0"
     bordercolor="#666666"
     pagecolor="#ffffff"
     id="base"
     showgrid="false"
     inkscape:zoom="2.3875968"
     inkscape:cx="125.26725"
     inkscape:cy="338.81169"
     inkscape:window-x="-11"
     inkscape:window-y="-11"
     inkscape:current-layer="g4601"
     inkscape:window-maximized="1" />
  <g
     id="g4601"
     transform="rotate(159.53576,191.80776,153.47822)"
     inkscape:export-xdpi="389"
     inkscape:export-ydpi="389"
     clip-path="url(#clipPath4876)">
    <path
       id="path2527"
       d="m 153.07376,295.38824 c -0.70814,-0.81443 -1.90582,-1.48079 -2.66151,-1.48079 -0.75567,0 -1.37397,-0.26654 -1.37397,-0.59231 0,-0.32578 -0.39981,-0.59232 -0.88847,-0.59232 -0.68207,0 -0.88848,-0.75685 -0.88848,-3.25774 0,-1.79176 -0.26654,-3.25774 -0.59232,-3.25774 -0.32577,0 -0.59231,-0.49903 -0.59231,-1.10893 0,-0.83573 -0.5837,-1.20227 -2.36927,-1.4878 -1.3031,-0.20836 -2.36927,-0.50898 -2.36927,-0.66802 0,-0.15902 0.53309,-0.82224 1.18464,-1.47379 0.79668,-0.79668 1.97438,-1.18463 3.59621,-1.18463 2.14971,0 4.1039,-0.994 4.1039,-2.08744 0,-1.26198 2.61389,-3.83573 3.89552,-3.83573 0.79509,0 2.2695,-0.73299 3.2765,-1.62887 1.63764,-1.45691 1.80057,-1.89933 1.5434,-4.1908 -0.20682,-1.84297 -0.0572,-2.65031 0.53322,-2.87688 0.4514,-0.17322 0.82075,-0.79099 0.82075,-1.37283 0,-0.58184 0.39981,-1.21131 0.88847,-1.39884 0.48866,-0.18751 0.88848,-0.88238 0.88848,-1.54416 0,-0.66177 0.19991,-1.2053 0.44424,-1.20784 0.81861,-0.009 1.92503,-3.16951 1.92503,-5.49977 0,-1.8085 -0.25584,-2.37354 -1.18464,-2.61642 -0.65155,-0.17039 -1.18463,-0.56916 -1.18463,-0.88616 0,-0.75796 2.45988,-2.79449 3.40582,-2.81966 0.40722,-0.0108 0.7404,-0.26771 0.7404,-0.57083 0,-0.30311 0.59972,-0.63629 1.33271,-0.74039 1.0728,-0.15236 1.36877,-0.62597 1.51761,-2.42844 0.11807,-1.4299 0.59975,-2.49824 1.33272,-2.95599 0.63128,-0.39425 1.14781,-1.31906 1.14781,-2.05513 0,-1.07948 -0.32964,-1.33831 -1.70443,-1.33831 -0.93743,0 -2.03624,0.39981 -2.44179,0.88848 -0.40555,0.48866 -1.11666,0.88847 -1.58024,0.88847 -1.02349,0 1.32981,-2.51145 2.92794,-3.12471 1.50088,-0.57594 1.89344,-2.05782 0.99154,-3.74304 -0.6978,-1.30387 -0.64384,-1.55219 0.51361,-2.36289 1.72839,-1.2106 1.64789,-1.62937 -0.77974,-4.057 -1.14021,-1.14021 -2.07311,-2.50085 -2.07311,-3.02364 0,-1.08019 1.37588,-2.64285 2.32696,-2.64285 0.34903,0 0.63462,-0.7839 0.63462,-1.742 0,-0.95809 0.24604,-1.89405 0.54675,-2.0799 0.30073,-0.18585 0.7217,-1.13447 0.93554,-2.10807 0.21384,-0.97358 0.63416,-1.77015 0.93405,-1.77015 0.29987,0 0.54525,-1.31698 0.54525,-2.92663 0,-1.60964 0.26654,-3.09136 0.59231,-3.2927 1.0396,-0.6425 0.65258,-3.5451 -0.59231,-4.44237 -1.56179,-1.12568 -1.49425,-1.85559 0.29615,-3.20012 1.17645,-0.88349 1.4808,-1.63411 1.4808,-3.65218 0,-1.46816 -0.37496,-2.91511 -0.88848,-3.42863 -1.31909,-1.31909 -1.07913,-3.445 0.59232,-5.24759 0.81443,-0.87832 1.48079,-2.14168 1.48079,-2.80745 0,-0.66577 0.26654,-1.21048 0.59232,-1.21048 0.32577,0 0.59231,-1.06617 0.59231,-2.36927 0,-2.22708 0.10455,-2.36927 1.742,-2.36927 0.95809,0 1.90672,-0.26654 2.10806,-0.59231 0.20134,-0.32578 0.98818,-0.59232 1.74854,-0.59232 0.76036,0 1.53588,-0.39982 1.7234,-0.88848 0.18752,-0.48866 0.73401,-0.88847 1.21442,-0.88847 0.4804,0 1.31605,-0.59972 1.85697,-1.33271 0.65871,-0.8926 1.07731,-1.08821 1.26758,-0.59232 0.15624,0.40722 0.54746,0.7404 0.86935,0.7404 1.40415,0 4.05455,3.91611 4.05455,5.99087 0,0.6143 0.24153,1.11693 0.53674,1.11693 0.29518,0 0.72003,1.33271 0.94405,2.96158 l 0.40733,2.96158 h 3.37986 c 3.67758,0 4.80141,0.66151 4.80141,2.8262 0,0.77255 0.39981,1.80445 0.88847,2.29311 0.48866,0.48867 0.88848,1.65334 0.88848,2.58816 0,0.93482 0.26654,1.86442 0.59231,2.06576 0.32578,0.20134 0.59232,1.15128 0.59232,2.11099 0,1.31237 0.73412,2.46378 2.96158,4.64483 1.62887,1.59494 2.96159,3.05759 2.96159,3.25031 0,0.19272 0.58118,1.01878 1.29142,1.8357 0.94783,1.09006 1.88037,1.4853 3.50457,1.4853 1.21721,0 2.31536,0.30683 2.4404,0.68185 0.12498,0.37502 1.74644,0.80785 3.60324,0.96182 1.85679,0.15399 3.37597,0.51351 3.37597,0.79894 0,0.28542 0.63786,0.51897 1.41741,0.51897 0.77967,0 1.57083,0.39981 1.75835,0.88847 0.18753,0.48866 0.88605,0.88848 1.55223,0.88848 1.26116,0 3.23719,0.94993 4.62042,2.22119 0.44306,0.40721 1.07097,0.74039 1.39538,0.74039 0.32442,0 1.4696,0.9329 2.54495,2.07311 1.07535,1.14021 2.21562,2.07311 2.53387,2.07311 0.31826,0 1.04349,0.51367 1.6117,1.14148 0.56815,0.62782 2.07542,1.3176 3.34955,1.53286 1.94534,0.32867 2.31649,0.62026 2.31649,1.8201 0,0.7858 0.28556,1.42873 0.63461,1.42873 1.0221,0 2.32697,1.59633 2.32697,2.84675 0,0.63493 0.39982,1.48623 0.88848,1.89178 0.48866,0.40555 0.88847,1.37109 0.88847,2.14563 0,1.10827 0.3163,1.40827 1.4847,1.40827 0.84548,0 2.03906,0.63755 2.77222,1.48079 1.40836,1.61975 3.35595,1.89153 5.30556,0.7404 1.00321,-0.59232 1.3076,-0.59232 1.52214,0 0.16389,0.45252 1.37577,0.74039 3.11695,0.74039 1.98053,0 2.95234,0.26967 3.18838,0.88468 0.25381,0.6617 -0.25268,0.97937 -2.00973,1.26034 -1.29208,0.20661 -2.34925,0.60813 -2.34925,0.89227 0,0.28414 -0.66635,0.51661 -1.48079,0.51661 -0.81444,0 -1.48079,0.24153 -1.48079,0.53674 0,0.2952 -1.33271,0.72003 -2.96159,0.94406 -1.62887,0.22402 -2.96158,0.64885 -2.96158,0.94405 0,0.29521 -0.66636,0.53674 -1.48079,0.53674 -0.81444,0 -1.48079,0.26654 -1.48079,0.59231 0,0.32578 -0.66636,0.59232 -1.48079,0.59232 -0.81444,0 -1.4808,0.24153 -1.4808,0.53674 0,0.2952 -1.33241,0.71999 -2.96093,0.94396 -1.62851,0.22398 -3.11019,0.6488 -3.29269,0.94406 -0.18249,0.29525 -0.98241,0.53683 -1.7776,0.53683 -0.79524,0 -1.44584,0.23628 -1.44584,0.52506 0,0.28878 -1.19323,0.704 -2.65163,0.92269 -1.4584,0.2187 -2.80681,0.64879 -2.99653,0.95574 -0.18978,0.30695 -0.99556,0.55809 -1.79075,0.55809 -0.79524,0 -1.44584,0.23628 -1.44584,0.52506 0,0.28878 -1.19323,0.704 -2.65163,0.9227 -1.4584,0.21869 -2.80681,0.64878 -2.99653,0.95573 -0.18978,0.30696 -0.99557,0.55809 -1.79075,0.55809 -0.79524,0 -1.44585,0.24153 -1.44585,0.53674 0,0.29518 -1.33271,0.72003 -2.96158,0.94405 -1.62887,0.22403 -2.96158,0.64886 -2.96158,0.94406 0,0.29522 -0.66636,0.53674 -1.48079,0.53674 -0.81444,0 -1.4808,0.24153 -1.4808,0.53673 0,0.29519 -1.33271,0.72003 -2.96158,0.94406 -1.62887,0.22402 -2.96158,0.64885 -2.96158,0.94406 0,0.29522 -0.81864,0.53673 -1.81925,0.53673 -1.81485,0 -3.5116,1.12435 -3.5116,2.32696 0,0.34903 -0.27924,0.63462 -0.62053,0.63462 -0.79439,0 -6.48727,5.67186 -6.48727,6.46331 0,0.82522 -3.07852,3.60608 -3.99209,3.60608 -0.41053,0 -0.74645,0.26146 -0.74645,0.58103 0,0.31956 -0.66635,0.74827 -1.48079,0.95269 -0.81444,0.20441 -1.48079,0.6093 -1.48079,0.89976 0,0.29046 -0.39982,0.5281 -0.88848,0.5281 -0.60912,0 -0.88847,0.6107 -0.88847,1.94235 0,1.26286 -0.41442,2.24105 -1.18464,2.79618 -0.65154,0.46962 -1.18463,1.19481 -1.18463,1.61156 0,0.41674 -0.26654,0.75771 -0.59232,0.75771 -1.12917,0 -0.59567,2.89206 0.70105,3.80032 1.16901,0.81882 1.21635,1.04983 0.49223,2.40285 -1.05203,1.96574 -2.12386,1.88976 -3.94959,-0.28 -0.97767,-1.16188 -2.0408,-1.77415 -3.07142,-1.76887 -2.73961,0.014 -4.24165,0.66491 -4.24165,1.83795 0,0.61355 -0.26654,1.11555 -0.59232,1.11555 -0.32577,0 -0.59231,0.39982 -0.59231,0.88848 0,0.72007 -0.95429,0.88847 -5.0347,0.88847 -2.96158,0 -5.03469,0.24389 -5.03469,0.59232 0,0.32577 -0.78389,0.59232 -1.74199,0.59232 -0.9581,0 -1.90673,-0.26655 -2.10807,-0.59232 -0.59986,-0.9706 -2.67318,-0.67205 -3.08504,0.44424 -0.86716,2.35029 -3.18629,2.55544 -5.02197,0.44423 z"
       style="opacity:1;fill:#08306b;fill-opacity:1;stroke:#ffffff;stroke-width:1;stroke-miterlimit:4;stroke-dasharray:none;stroke-opacity:1"
       inkscape:connector-curvature="0" />
    <path
       id="path2529"
       d="m 274.46135,238.42492 c -0.57011,-0.15516 -1.03656,-0.5291 -1.03656,-0.83098 0,-0.30189 -1.31696,-0.54889 -2.92663,-0.54889 -1.60963,0 -3.09137,-0.26655 -3.29269,-0.59232 -0.20133,-0.32577 -1.13423,-0.59232 -2.07311,-0.59232 -0.93888,0 -1.87178,0.26655 -2.07311,0.59232 -0.55091,0.89137 -1.04301,0.73485 -2.79372,-0.88847 -0.87835,-0.81444 -1.87516,-1.4808 -2.21515,-1.4808 -0.33999,0 -0.61814,-0.66635 -0.61814,-1.48079 0,-1.08591 -0.31588,-1.48079 -1.18463,-1.48079 -0.725,0 -1.18464,-0.39488 -1.18464,-1.01769 0,-0.55973 -0.62459,-1.55927 -1.38803,-2.22119 -0.76338,-0.66192 -1.6499,-2.00312 -1.96999,-2.98045 -0.45827,-1.39913 -1.07618,-1.89795 -2.90626,-2.34604 -1.2784,-0.31302 -2.67259,-1.046 -3.09829,-1.62887 -0.42576,-0.58289 -1.09389,-1.05978 -1.48488,-1.05978 -0.39105,0 -1.56709,-0.9329 -2.61354,-2.07311 -1.04644,-1.14021 -2.1584,-2.0731 -2.47096,-2.0731 -0.31257,0 -0.92052,-0.33318 -1.35102,-0.7404 -0.43049,-0.40722 -1.58231,-1.09823 -2.55964,-1.53558 -0.97732,-0.43736 -2.53156,-1.17035 -3.4538,-1.62887 -0.92223,-0.45853 -2.32164,-0.83369 -3.10966,-0.83369 -0.78802,0 -1.43281,-0.26654 -1.43281,-0.59231 0,-0.32578 -0.91963,-0.59232 -2.04367,-0.59232 -1.1597,0 -2.24944,-0.36769 -2.51942,-0.85006 -0.28538,-0.51008 -1.63503,-0.92464 -3.37455,-1.03655 -2.13714,-0.13749 -3.07045,-0.49177 -3.55188,-1.34825 -0.93219,-1.65854 -4.93394,-5.64989 -5.66457,-5.64989 -0.33845,0 -0.61541,-1.06617 -0.61541,-2.36927 0,-1.3031 -0.26655,-2.36927 -0.59232,-2.36927 -0.32577,0 -0.59232,-0.66635 -0.59232,-1.48079 0,-0.81443 -0.23686,-1.48079 -0.52639,-1.48079 -0.28954,0 -0.70757,-0.96571 -0.929,-2.14603 -0.84094,-4.48249 -2.44383,-6.1464 -5.92106,-6.1464 -2.55538,0 -2.74452,-0.10988 -3.0804,-1.78928 -0.19682,-0.9841 -0.58997,-1.93273 -0.87367,-2.10807 -0.2837,-0.17533 -0.51581,-0.98153 -0.51581,-1.79154 0,-0.81002 -0.66636,-2.13912 -1.48079,-2.95355 -0.81444,-0.81444 -1.4808,-1.86849 -1.4808,-2.34234 0,-0.47386 -0.53308,-0.86156 -1.18463,-0.86156 -0.65813,0 -1.18463,-0.39488 -1.18463,-0.88847 0,-0.48866 0.26654,-0.88848 0.59231,-0.88848 0.32578,0 0.59232,-0.79963 0.59232,-1.77695 0,-0.97732 -0.26654,-1.77695 -0.59232,-1.77695 -0.32577,0 -0.59231,-0.9329 -0.59231,-2.07311 v -2.07311 h 7.05816 7.05813 l 0.77507,-1.75096 c 0.67605,-1.52731 1.17513,-1.80094 3.90753,-2.14233 1.72287,-0.21525 3.27794,-0.62677 3.45575,-0.91446 0.17781,-0.2877 0.97395,-0.5231 1.76913,-0.5231 0.79525,0 1.44585,-0.24532 1.44585,-0.54517 0,-0.29984 1.73252,-0.73071 3.85006,-0.95747 2.11753,-0.22677 3.85005,-0.6478 3.85005,-0.93563 0,-0.28782 0.9329,-0.52331 2.07311,-0.52331 1.14021,0 2.07311,-0.23448 2.07311,-0.52107 0,-0.28659 3.33178,-0.71325 7.40396,-0.94812 4.07218,-0.23488 7.40396,-0.66675 7.40396,-0.95972 0,-0.7759 12.88312,-0.67997 13.14244,0.0978 0.11556,0.34679 1.40385,0.78858 2.86285,0.98175 1.59256,0.21086 2.96199,0.78739 3.42667,1.44259 0.42575,0.60025 1.31097,1.09135 1.96732,1.09135 1.28313,0 2.8857,-1.29228 2.8857,-2.32695 0,-0.34906 0.40343,-0.63463 0.89654,-0.63463 0.4931,0 1.3593,-0.24414 1.92502,-0.54252 3.53116,-1.86259 5.7299,-2.41906 9.55852,-2.41906 4.05914,0 4.82394,0.31621 3.65305,1.5104 -0.30344,0.3095 -0.7305,2.16532 -0.94907,4.12407 -0.38637,3.46295 -0.34129,3.62256 1.63035,5.77509 1.88096,2.05362 2.26846,2.21372 5.3565,2.21372 1.83085,0 3.49354,0.26654 3.69487,0.59232 0.20956,0.33903 3.2639,0.59231 7.14275,0.59231 4.12294,0 6.77669,-0.23195 6.77669,-0.59231 0,-0.83237 2.72277,-0.73801 4.2731,0.14808 0.71249,0.40721 1.97223,1.34011 2.7994,2.07311 1.54939,1.37294 5.95847,1.92081 5.95847,0.74039 0,-1.2448 1.64102,-0.50832 3.2995,1.48079 1.32632,1.59079 2.17718,2.07311 3.65691,2.07311 1.66204,0 1.92834,0.20451 1.92834,1.48079 0,1.10294 0.3131,1.4808 1.22693,1.4808 0.67482,0 1.6268,0.39981 2.11546,0.88847 0.48866,0.48866 1.46912,0.91104 2.17883,0.93861 0.72115,0.028 2.15521,1.05687 3.2507,2.33225 l 1.96033,2.28211 -2.40463,2.4777 c -1.32241,1.36275 -2.40445,2.7228 -2.40445,3.02234 0,0.29954 -1.06617,1.55884 -2.36927,2.79845 -1.30309,1.2396 -2.36926,2.55911 -2.36926,2.93223 0,0.37313 -1.19944,1.80712 -2.66543,3.18667 -1.46598,1.37954 -2.66542,2.71448 -2.66542,2.96652 0,0.25205 -1.06617,1.55689 -2.36927,2.89964 -1.3031,1.34275 -2.36927,2.68572 -2.36927,2.98436 0,0.29864 -1.19944,1.70871 -2.66542,3.13349 -1.46599,1.42476 -2.66543,2.86077 -2.66543,3.1911 0,0.83662 -4.87145,5.41404 -5.77005,5.42184 -0.40449,0.004 -1.0683,0.53947 -1.47523,1.19102 -0.40686,0.65155 -1.0882,1.18463 -1.51408,1.18463 -0.42587,0 -1.39182,0.66636 -2.14661,1.48079 -0.75479,0.81444 -1.67495,1.4808 -2.04486,1.4808 -0.36984,0 -0.67245,0.24858 -0.67245,0.5524 0,0.30381 -0.57716,0.73558 -1.28255,0.95947 -0.70539,0.22389 -1.91697,1.04147 -2.69237,1.81686 -0.77534,0.77539 -1.7975,1.4098 -2.27136,1.4098 -0.47385,0 -0.86152,0.2632 -0.86152,0.58489 0,0.5 -2.065,2.0682 -5.85944,4.4498 -0.51898,0.32578 -1.53262,1.19204 -2.2524,1.92503 -0.71978,0.73299 -1.60068,1.33271 -1.95755,1.33271 -0.35687,0 -1.26643,0.66636 -2.02122,1.4808 -0.75479,0.81443 -1.78601,1.48079 -2.29161,1.48079 -0.50566,0 -1.00813,0.24683 -1.11676,0.54852 -0.2493,0.69261 -2.82789,1.20356 -4.19555,0.83135 z"
       style="opacity:1;fill:#4292c6;fill-opacity:1;stroke:#ffffff;stroke-width:1;stroke-miterlimit:4;stroke-dasharray:none;stroke-opacity:1"
       inkscape:connector-curvature="0" />
    <path
       id="path2531"
       d="m 339.91234,177.3806 c -0.40721,-0.14204 -0.74039,-0.75706 -0.74039,-1.36669 0,-0.81265 -0.59273,-1.21852 -2.22119,-1.52096 -1.22165,-0.22687 -2.65228,-0.90531 -3.17914,-1.50763 -0.52687,-0.60232 -1.25986,-1.09511 -1.62887,-1.09511 -0.36902,0 -0.67092,-0.28558 -0.67092,-0.63463 0,-1.12219 -1.64895,-2.32696 -3.18489,-2.32696 -0.82095,0 -2.14981,-0.60905 -2.95299,-1.35346 -2.28557,-2.11815 -4.66568,-3.24371 -4.96628,-2.34851 -0.28425,0.84652 -3.11144,1.02383 -3.11144,0.19514 0,-0.2999 -0.86626,-0.73552 -1.92503,-0.96806 -1.05871,-0.23254 -2.27325,-0.92007 -2.69901,-1.52785 -0.59249,-0.84588 -1.52202,-1.10506 -3.96319,-1.10506 -1.75403,0 -3.35394,0.26655 -3.55526,0.59232 -0.20133,0.32577 -2.74924,0.59232 -5.66196,0.59232 -3.13572,0 -5.2959,-0.24161 -5.2959,-0.59232 0,-0.32776 -1.55649,-0.59232 -3.48484,-0.59232 -3.02822,0 -3.52689,-0.16096 -3.80611,-1.22859 -0.17669,-0.67572 -0.87414,-1.37316 -1.54985,-1.54987 -1.22456,-0.32023 -1.78098,-2.55239 -0.63627,-2.55239 0.32577,0 0.59232,-0.80324 0.59232,-1.78498 0,-0.98174 0.33122,-2.31538 0.73607,-2.96363 0.54724,-0.87625 0.56773,-1.44406 0.0798,-2.21316 -0.55826,-0.88013 -1.6111,-1.0345 -7.05496,-1.0345 -4.59289,0 -6.4681,0.20895 -6.64467,0.74039 -0.13535,0.40722 -1.15668,0.7404 -2.2697,0.7404 -1.11308,0 -2.02377,0.26654 -2.02377,0.59232 0,0.32577 -0.66635,0.59231 -1.48079,0.59231 -1.2104,0 -1.48079,0.28928 -1.48079,1.58404 v 1.58405 l -1.37092,-1.28788 c -0.75396,-0.70834 -2.02004,-1.28953 -2.8135,-1.29154 -0.79341,-0.002 -2.20603,-0.40182 -3.13916,-0.88847 -0.93314,-0.48666 -2.21823,-0.88483 -2.8558,-0.88483 -1.23243,0 -2.85159,-1.29787 -2.85159,-2.28576 0,-0.32639 0.59972,-0.67861 1.33271,-0.78271 1.6576,-0.23542 2.29055,-2.8547 0.68981,-2.8547 -0.95209,0 -0.95487,-0.0736 -0.0412,-1.08319 2.09994,-2.32037 0.7728,-4.24766 -2.92486,-4.24766 -1.66121,0 -2.59648,-0.29419 -2.82452,-0.88847 -0.18753,-0.48866 -0.74916,-0.88848 -1.24801,-0.88848 -1.43193,0 -1.07322,-0.96623 1.16603,-3.14098 1.71263,-1.66329 2.07311,-2.44069 2.07311,-4.47089 0,-2.34385 -0.0835,-2.45751 -1.8039,-2.45751 -1.77636,0 -4.71158,2.19722 -4.71158,3.52698 0,0.34057 -0.30173,0.61923 -0.67045,0.61923 -0.36871,0 -1.55033,0.9329 -2.62568,2.07311 -1.07535,1.14021 -2.13269,2.07311 -2.34966,2.07311 -0.5938,0 -4.67634,1.95424 -5.01591,2.40105 -0.16289,0.21431 -1.30168,0.57458 -2.53068,0.80059 -1.23308,0.22677 -2.5578,0.92869 -2.95595,1.56623 -0.47854,0.76619 -1.37951,1.1553 -2.6752,1.1553 h -1.9537 l 1.20773,-1.29633 c 0.89677,-0.96262 1.20768,-2.09528 1.20768,-4.40006 0,-1.96913 0.32476,-3.42854 0.88847,-3.99222 0.94599,-0.94596 1.24014,-4.52699 0.37186,-4.52699 -0.28414,0 -0.68709,-1.06617 -0.89547,-2.36927 -0.29325,-1.83374 -0.64248,-2.36927 -1.54523,-2.36927 -0.75011,0 -1.29895,-0.52844 -1.53801,-1.48079 -0.20441,-0.81443 -0.6506,-1.48079 -0.99154,-1.48079 -0.34094,0 -0.17876,-0.48743 0.36037,-1.08319 0.53918,-0.59576 0.98028,-1.52866 0.98028,-2.07311 0,-0.54445 0.26654,-0.98992 0.59232,-0.98992 0.32577,0 0.59231,0.26655 0.59231,0.59232 0,0.32577 0.39982,0.59232 0.88848,0.59232 0.48866,0 0.89055,0.1999 0.89309,0.44423 0.007,0.63337 2.96686,1.92503 4.41188,1.92503 1.19825,0 5.06057,-3.63474 5.06057,-4.76238 0,-0.31696 0.66636,-1.15569 1.48079,-1.86383 0.81444,-0.70815 1.4808,-1.78079 1.4808,-2.38365 0,-0.60286 0.93289,-1.9523 2.0731,-2.99875 2.01281,-1.84729 2.68705,-3.39162 1.4808,-3.39162 -0.32578,0 -0.59232,-0.9329 -0.59232,-2.07311 0,-1.140209 -0.26654,-2.073108 -0.59232,-2.073108 -0.32577,0 -0.59231,-1.44103 -0.59231,-3.202289 0,-3.022314 0.0743,-3.182844 1.32299,-2.856318 0.72767,0.190282 1.7272,0.833064 2.22119,1.42839 0.73501,0.885721 1.91111,1.108769 6.47242,1.227446 4.03824,0.105059 5.64318,-0.05899 5.82443,-0.595367 0.13772,-0.407218 0.73892,-0.740396 1.33615,-0.740396 0.59723,0 1.19618,-0.330797 1.33094,-0.735106 0.17828,-0.53459 0.51484,-0.465342 1.23403,0.253849 0.54392,0.543924 0.98893,1.160307 0.98893,1.369732 0,0.615003 1.63663,2.073109 2.32698,2.073109 0.34905,0 0.6346,0.287587 0.6346,0.63908 0,0.351492 1.19945,1.838515 2.66543,3.304498 1.46598,1.46599 2.66542,3.00687 2.66542,3.42417 0,0.41731 0.65031,1.24712 1.44514,1.84401 0.79483,0.59689 1.59955,1.7004 1.78826,2.45224 0.21389,0.85224 0.78488,1.36697 1.51645,1.36697 0.64811,0 1.17332,0.39773 1.17332,0.88847 0,0.48867 0.341,0.88848 0.75769,0.88848 0.41676,0 1.14199,0.53308 1.61158,1.18463 0.94913,1.31686 3.28919,1.59366 3.75558,0.44424 0.21661,-0.5338 0.43701,-0.55608 0.7898,-0.0798 0.26903,0.3633 1.0224,0.8282 1.67394,1.03311 0.65155,0.20489 1.71772,1.17295 2.36927,2.15124 1.22183,1.83451 2.305,2.25218 2.98546,1.15119 0.25594,-0.4141 0.76888,-0.28792 1.49287,0.36726 0.88954,0.80504 1.73768,0.91886 4.38356,0.58829 1.80431,-0.22545 3.2806,-0.65725 3.2806,-0.95959 0,-0.30233 0.39982,-0.54969 0.88848,-0.54969 0.48866,0 0.88847,-0.26654 0.88847,-0.59232 0,-0.32577 0.66636,-0.59231 1.4808,-0.59231 0.81443,0 1.48079,-0.26655 1.48079,-0.59232 0,-0.32577 0.9329,-0.59232 2.07311,-0.59232 1.14021,0 2.0731,0.26655 2.0731,0.59232 0,0.32577 0.79963,0.59232 1.77696,0.59232 1.46616,0 1.77695,0.24146 1.77695,1.3807 0,0.90782 0.5579,1.66824 1.62887,2.22024 0.89588,0.46175 1.79033,1.06009 1.98775,1.32964 0.1973,0.26955 1.46344,0.63825 2.81351,0.81933 l 2.45462,0.32923 v -2.10264 c 0,-3.73659 0.2897,-3.9765 4.80191,-3.9765 2.86651,0 4.08556,-0.22057 4.0919,-0.7404 0.006,-0.45853 0.17473,-0.51491 0.44424,-0.14808 0.76,1.03443 3.03384,2.07311 4.53839,2.07311 0.79962,0 1.61862,0.26654 1.81995,0.59232 0.20133,0.32577 1.10011,0.59231 1.99723,0.59231 1.03922,0 2.24903,0.64486 3.33362,1.77695 1.50804,1.57404 2.09431,1.77695 5.1342,1.77695 3.16664,0 3.46055,0.11443 3.8035,1.4808 0.26678,1.06313 0.7712,1.48079 1.78821,1.48079 0.77913,0 1.41658,0.26654 1.41658,0.59231 0,0.32578 0.87959,0.59232 1.95465,0.59232 2.65263,0 3.3762,0.914 3.3762,4.26468 0,1.56371 0.26655,2.84312 0.59232,2.84312 0.32577,0 0.59232,0.63372 0.59232,1.40827 0,0.77454 0.39981,1.74008 0.88847,2.14563 0.48866,0.40556 0.88848,1.37109 0.88848,2.14563 0,0.77455 0.26654,1.40827 0.59231,1.40827 0.32578,0 0.59232,1.02947 0.59232,2.28772 v 2.28772 l -3.32544,0.39084 c -3.03302,0.35646 -3.45665,0.2595 -4.81927,-1.10309 -1.80307,-1.80312 -2.52712,-1.87934 -2.93771,-0.30929 -0.17035,0.65155 -0.50726,1.18464 -0.74863,1.18464 -0.24137,0 -0.6127,1.66589 -0.82522,3.70198 -0.21246,2.03608 -0.65024,3.79082 -0.97282,3.89941 -0.32258,0.10859 -0.58651,1.10813 -0.58651,2.22119 0,1.11306 -0.24155,2.02375 -0.53676,2.02375 -0.29515,0 -0.72002,1.33271 -0.94403,2.96158 -0.22402,1.62887 -0.64883,2.96159 -0.94404,2.96159 -0.29527,0 -0.53676,0.9329 -0.53676,2.07311 0,1.14021 -0.25333,2.0731 -0.56287,2.0731 -0.30961,0 -0.74389,1.59926 -0.96501,3.5539 -0.22117,1.95465 -0.63419,3.55391 -0.91791,3.55391 -0.28366,0 -0.51579,0.63784 -0.51579,1.41741 0,1.45697 -0.91548,2.15917 -2.22119,1.70372 z"
       style="opacity:1;fill:#2171b5;fill-opacity:1;stroke:#ffffff;stroke-width:1;stroke-miterlimit:4;stroke-dasharray:none;stroke-opacity:1"
       inkscape:connector-curvature="0" />
    <path
       id="path2533"
       d="m 358.12608,124.50487 c 0,-0.32577 -0.61322,-0.59232 -1.36268,-0.59232 -1.71452,0 -4.54822,-1.28814 -4.56048,-2.0731 -0.0159,-1.02164 -3.08005,-2.07311 -6.04128,-2.07311 -1.62721,0 -2.84348,-0.27147 -2.84348,-0.63463 0,-1.29599 -1.92331,-2.48897 -4.47667,-2.77677 -1.44714,-0.16311 -2.63113,-0.52845 -2.63113,-0.81185 0,-0.28341 -0.91068,-0.51529 -2.02376,-0.51529 -1.11303,0 -2.12618,-0.30737 -2.2514,-0.68306 -0.30718,-0.92151 -10.84988,-0.72268 -13.03802,0.24589 -1.30831,0.57912 -1.64095,1.11726 -1.64095,2.65487 0,2.1375 -0.25043,2.25794 -2.49354,1.19937 -1.12599,-0.53138 -1.64107,-1.32971 -1.89908,-2.94339 l -0.35409,-2.21424 -6.06722,0.16203 c -5.66195,0.1512 -8.239,0.79941 -9.38567,2.36078 -0.60256,0.82051 -6.03073,0.78448 -6.3064,-0.0419 -0.31067,-0.93155 -1.9252,-0.97847 -1.9252,-0.0559 0,0.37644 -0.60819,-0.0234 -1.35155,-0.88848 -0.7433,-0.86511 -1.80449,-1.57292 -2.35801,-1.57292 -0.57953,0 -1.16403,-0.62811 -1.37809,-1.48079 -0.42244,-1.68329 -1.74579,-1.91267 -3.2389,-0.56141 -0.92769,0.83953 -1.11919,0.7881 -2.20502,-0.59232 -0.65398,-0.83144 -1.46344,-1.51169 -1.79869,-1.51169 -0.91608,0 -4.25461,-3.52163 -4.25461,-4.48794 0,-0.4636 -0.26654,-0.84291 -0.59232,-0.84291 -0.32577,0 -0.59255,-0.33318 -0.59285,-0.7404 -2.9e-4,-0.40722 -1.06646,-1.77445 -2.36926,-3.038277 -1.30281,-1.263826 -2.36874,-2.548952 -2.36874,-2.855814 0,-0.757679 -1.54346,-2.250264 -2.32697,-2.250264 -0.34906,0 -0.63461,-0.502433 -0.63461,-1.116511 0,-1.25352 -2.34931,-3.029706 -4.00732,-3.029706 -1.34018,0 -4.27422,1.319474 -4.2805,1.925029 -0.003,0.244331 -0.40443,0.444238 -0.89309,0.444238 -0.48866,0 -0.88848,0.266542 -0.88848,0.592316 0,0.325774 -0.39981,0.592317 -0.88847,0.592317 -0.48866,0 -0.88848,-0.266543 -0.88848,-0.592317 0,-0.325774 -1.22757,-0.592316 -2.72797,-0.592316 -2.04574,0 -3.16818,-0.370358 -4.48787,-1.480792 -2.52593,-2.12547 -8.18439,-2.027311 -8.18439,0.141972 0,1.186754 -2.25637,3.11577 -3.64453,3.11577 -0.74679,0 -1.09401,-0.43251 -1.09401,-1.362708 0,-3.626092 -2.52486,-5.674098 -4.52701,-3.671984 -0.48866,0.488661 -1.53576,0.888475 -2.32692,0.888475 -1.0436,0 -1.4385,0.325193 -1.4385,1.184633 0,0.651549 -0.341,1.184634 -0.75769,1.184634 -0.41675,0 -1.14199,-0.533085 -1.61158,-1.184634 -0.68833,-0.955039 -1.53333,-1.184633 -4.35974,-1.184633 -3.68291,0 -5.05827,-0.850295 -5.09849,-3.151972 -0.0312,-1.78811 -2.98042,-3.94416 -2.98042,-2.178879 0,1.207041 -1.06884,0.541958 -1.42786,-0.888475 -0.23996,-0.956088 -0.78742,-1.480792 -1.545,-1.480792 -0.64535,0 -1.17335,-0.266542 -1.17335,-0.592316 0,-0.325775 -0.33318,-0.596398 -0.7404,-0.601385 -0.40722,-0.005 -1.12598,-0.253014 -1.59724,-0.551163 -0.7071,-0.447359 -0.60359,-0.752858 0.59232,-1.748175 0.79703,-0.663348 1.66957,-1.214949 1.93896,-1.225788 0.2694,-0.01083 1.26892,-0.798828 2.22118,-1.751096 1.33217,-1.332138 1.73139,-2.273619 1.73139,-4.082845 0,-1.543778 0.30516,-2.468562 0.88848,-2.692399 0.61056,-0.234285 0.88847,-1.188318 0.88847,-3.04972 0,-2.855382 1.06511,-4.565234 3.645,-5.851444 2.13376,-1.063813 4.60544,-5.10596 4.62777,-7.568226 0.0108,-1.194501 0.35285,-2.295423 0.76006,-2.446481 1.27242,-0.472 6.61381,0.337697 7.39745,1.121374 1.20287,1.202882 0.92964,3.200779 -0.43773,3.200779 -0.80335,0 -1.18463,0.394879 -1.18463,1.226942 0,1.311348 1.28166,2.919275 2.32698,2.919275 0.34905,0 0.6346,0.784511 0.6346,1.743365 0,1.034991 0.45259,2.060374 1.11386,2.523554 0.61269,0.429104 1.21507,1.310483 1.33869,1.958614 0.1912,1.002425 0.77682,1.204766 3.92078,1.35477 2.03283,0.09699 3.69606,0.430164 3.69606,0.740396 0,0.310232 0.6506,0.564051 1.44584,0.564051 0.79519,0 1.61057,0.266543 1.8119,0.592317 0.72588,1.174499 6.20085,4.21e-4 6.21471,-1.332713 0.003,-0.24433 0.40443,-0.444237 0.89309,-0.444237 0.55281,0 0.88848,0.559408 0.88848,1.480792 0,0.865896 0.34022,1.480792 0.81941,1.480792 0.45063,0 0.95878,0.533085 1.12913,1.184633 0.24617,0.941256 0.80798,1.184633 2.73455,1.184633 1.3336,0 2.42471,0.232206 2.42471,0.516009 0,0.283803 1.33271,0.692797 2.96158,0.908874 1.62887,0.216078 2.96158,0.650234 2.96158,0.964784 0,0.801736 3.99868,0.718326 4.26782,-0.08903 0.32299,-0.968988 11.44339,-1.040214 12.40513,-0.07945 0.94214,0.941162 3.60306,0.958552 4.53199,0.02962 0.55281,-0.552827 0.71078,-0.552827 0.71078,0 0,0.951338 4.62072,0.930879 6.68892,-0.02962 1.46035,-0.678203 1.59469,-1.02774 1.5989,-4.161025 0.005,-3.34515 0.0449,-3.428679 1.82866,-3.785437 1.00326,-0.200653 2.13352,-0.86034 2.51177,-1.465984 0.90655,-1.451596 1.3496,-1.39275 3.16232,0.419959 1.26602,1.266077 1.99108,1.496192 4.32386,1.37238 2.19554,-0.116538 3.10338,0.131358 4.19064,1.144291 0.76338,0.711177 1.87077,1.293045 2.4609,1.293045 0.59012,0 1.07292,0.399814 1.07292,0.888475 0,0.488661 0.51514,0.888475 1.14471,0.888475 0.65972,0 1.32021,0.552934 1.55892,1.305087 0.45063,1.419706 1.15875,2.188527 2.94837,3.201045 0.63781,0.360846 1.6884,1.751759 2.33462,3.090934 0.69017,1.430143 1.9733,2.864781 3.10966,3.476757 1.06416,0.573037 1.93469,1.330841 1.93469,1.683992 0,0.353157 0.54345,1.225438 1.20773,1.938416 1.04212,1.118554 1.83837,1.29632 5.80695,1.29632 4.47869,0 4.65194,0.05434 6.6086,2.073109 1.60287,1.653772 2.4651,2.073108 4.26243,2.073108 1.23919,0 2.25305,0.266543 2.25305,0.592317 0,0.325774 0.38768,0.592317 0.86153,0.592317 0.47385,0 1.52794,0.666356 2.34238,1.480792 0.86584,0.865884 2.16835,1.48415 3.13655,1.488877 2.24624,0.01097 4.32125,0.609108 4.32125,1.24563 0,0.287783 -1.66844,0.523235 -3.70761,0.523235 -3.06607,0 -3.83555,-0.204966 -4.44735,-1.184634 -0.53913,-0.863213 -1.38134,-1.184633 -3.1041,-1.184633 -2.30713,0 -2.36423,0.05009 -2.36423,2.073108 0,1.14021 0.23687,2.073109 0.52639,2.073109 0.28953,0 0.70142,0.932899 0.91531,2.073108 0.21395,1.14021 0.64337,2.07311 0.9544,2.07311 0.31103,0 0.56548,0.66636 0.56548,1.48079 0,0.81444 0.26655,1.48079 0.59232,1.48079 0.32578,0 0.59232,0.54145 0.59232,1.20322 0,0.66179 0.39981,1.35665 0.88847,1.54417 0.48866,0.18752 0.88848,0.81699 0.88848,1.39883 0,0.58184 0.39981,1.21131 0.88847,1.39883 0.48866,0.18752 0.88848,0.70105 0.88848,1.14119 0,1.08456 2.72329,3.38315 4.00827,3.38315 0.57069,0 1.37056,0.53308 1.77742,1.18463 0.40692,0.65155 1.13737,1.18463 1.6233,1.18463 0.48588,0 0.88344,0.39982 0.88344,0.88848 0,0.48866 0.39982,0.88847 0.88848,0.88847 0.64165,0 0.88847,0.65813 0.88847,2.36927 0,1.71114 -0.24682,2.36927 -0.88847,2.36927 -0.48866,0 -0.88848,-0.26655 -0.88848,-0.59232 z"
       style="opacity:1;fill:#08306b;fill-opacity:1;stroke:#ffffff;stroke-width:1;stroke-miterlimit:4;stroke-dasharray:none;stroke-opacity:1"
       inkscape:connector-curvature="0" />
    <path
       id="path2535"
       d="m 192.2774,160.63619 c 0,-0.32577 -0.39981,-0.59232 -0.88847,-0.59232 -0.48866,0 -0.88848,-0.28558 -0.88848,-0.63462 0,-0.8241 -1.19276,-1.98794 -2.57358,-2.51117 -0.60105,-0.22775 -1.23184,-0.94582 -1.40179,-1.59573 -0.25555,-0.97715 -0.80959,-1.18164 -3.20151,-1.18164 -2.87755,0 -2.8925,-0.0101 -2.8925,-1.95503 0,-2.20117 -1.17531,-5.13098 -2.07311,-5.16786 -2.31989,-0.0953 -4.92917,-5.53117 -3.00876,-6.2681 0.7468,-0.28656 0.93565,-1.33383 0.93565,-5.18834 0,-4.3305 0.15294,-4.99423 1.48079,-6.42625 0.81444,-0.87833 1.48079,-1.77725 1.48079,-1.99759 0,-0.22034 0.49496,-0.83169 1.09991,-1.35856 0.60496,-0.52688 1.28926,-1.55767 1.5207,-2.29066 0.23146,-0.733 0.66939,-1.33272 0.97321,-1.33272 0.30382,0 0.5524,-0.66635 0.5524,-1.48079 0,-0.81443 0.26654,-1.48079 0.59232,-1.48079 0.3337,0 0.59231,-1.66925 0.59231,-3.82314 0,-3.35629 0.19375,-4.01688 1.58669,-5.40982 1.23374,-1.23374 1.64735,-2.31812 1.85937,-4.87479 0.37768,-4.55447 2.04892,-6.198561 6.56698,-6.460341 1.82276,-0.10561 3.40294,-0.452027 3.51153,-0.769822 0.1086,-0.317784 0.55454,-0.577805 0.99099,-0.577805 1.20155,0 4.43858,-3.489012 4.43858,-4.784095 0,-0.626494 0.30261,-1.139073 0.67247,-1.139073 0.36988,0 1.29003,-0.666356 2.04483,-1.480791 1.54862,-1.670991 2.61355,-1.912342 2.61355,-0.592317 0,0.488661 0.26654,0.888475 0.59232,0.888475 0.32577,0 0.59231,0.504571 0.59231,1.121261 0,1.455352 1.11083,1.840323 5.31024,1.840323 2.93819,0 3.48128,0.171724 3.74611,1.184633 0.24255,0.927384 0.80798,1.184633 2.60376,1.184633 1.61448,0 2.54691,-0.3509 3.14781,-1.184633 0.46959,-0.651548 1.10716,-1.184633 1.41682,-1.184633 0.30967,0 1.05048,-0.441122 1.64623,-0.980279 1.03602,-0.937637 1.08317,-0.847439 1.08317,2.073109 v 3.053387 h 2.98984 c 2.47238,0 3.24133,-0.271281 4.44237,-1.567282 l 1.45254,-1.567288 v 2.455757 c 0,1.350672 0.26654,2.455763 0.59232,2.455763 0.32577,0 0.59231,0.932899 0.59231,2.073108 0,1.14021 0.27691,2.07311 0.61542,2.07311 0.33851,0 0.0719,0.58334 -0.59232,1.29632 -0.66422,0.71297 -1.20773,1.5126 -1.20773,1.77695 0,0.26434 -0.39982,0.48063 -0.88848,0.48063 -0.62051,0 -0.88847,0.62522 -0.88847,2.07311 0,1.81644 -0.18332,2.07311 -1.48079,2.07311 -1.18464,0 -1.48079,0.29615 -1.48079,1.48079 0,0.96004 -0.33194,1.48079 -0.94392,1.48079 -0.51917,0 -1.08335,0.53308 -1.25376,1.18463 -0.31635,1.20991 -1.35623,1.66405 -1.35623,0.59232 0,-0.32577 -0.77113,-0.59232 -1.71357,-0.59232 -0.97685,0 -1.86017,-0.38202 -2.05451,-0.88847 -0.214,-0.55766 -1.11977,-0.88848 -2.43264,-0.88848 -1.8363,0 -2.09171,0.18083 -2.09171,1.48079 0,1.08592 -0.31588,1.4808 -1.18463,1.4808 -0.65813,0 -1.18464,0.39488 -1.18464,0.88847 0,0.48866 -0.41835,0.88848 -0.9297,0.88848 -1.62733,0 -0.72428,2.57265 1.22586,3.49225 0.97732,0.46085 1.8658,1.06308 1.97437,1.33826 0.10863,0.27518 0.46082,0.50034 0.78275,0.50034 1.13896,0 2.14028,1.58071 2.55454,4.03266 0.34615,2.04926 0.25523,2.48282 -0.52106,2.48282 -0.76853,0 -0.94054,0.74929 -0.94054,4.09686 0,2.37025 -0.26571,4.18543 -0.63052,4.30703 -0.3468,0.1156 -0.78168,1.33725 -0.96648,2.71478 l -0.33591,2.50462 h 3.22404 c 2.33527,0 3.55313,-0.30659 4.4178,-1.11217 0.65658,-0.6117 1.83967,-1.30185 2.62905,-1.53368 2.37567,-0.69766 4.69299,-1.76584 4.69299,-2.16324 0,-0.20553 0.79406,-0.5325 1.76463,-0.72661 1.14696,-0.2294 3.22019,-1.85541 5.92317,-4.64549 3.86664,-3.99129 4.15853,-4.17957 4.15853,-2.6827 0,1.03612 -0.31665,1.60987 -0.88847,1.60987 -0.48866,0 -0.88848,0.36873 -0.88848,0.81939 0,0.45067 -0.53308,0.9588 -1.18463,1.12918 -1.81113,0.47361 -1.61187,3.54576 0.29616,4.56691 0.81443,0.43588 1.48079,1.14727 1.48079,1.58088 0,0.56074 0.94066,0.78839 3.25774,0.78839 1.79176,0 3.25774,0.26654 3.25774,0.59232 0,0.32577 -0.53308,0.59231 -1.18463,0.59231 -1.54666,0 -1.50733,1.06198 0.0906,2.44787 l 1.27526,1.10603 h -1.63621 c -1.52119,0 -1.61922,0.14575 -1.3942,2.07311 l 0.24202,2.07311 h -3.99233 c -2.19578,0 -4.13704,0.23417 -4.3139,0.52037 -0.17693,0.28619 -3.92422,0.71332 -8.32738,0.94916 -4.40323,0.23582 -8.00582,0.66802 -8.00582,0.96041 0,0.2924 -0.66635,0.53164 -1.48079,0.53164 -0.81443,0 -1.48079,0.26655 -1.48079,0.59232 0,0.32577 -0.9329,0.59232 -2.07311,0.59232 -1.14021,0 -2.07311,0.22941 -2.07311,0.50981 0,0.28039 -1.37891,0.67313 -3.06429,0.87273 -1.68538,0.19961 -3.33794,0.63655 -3.67236,0.97098 -0.33442,0.33443 -1.35439,0.60806 -2.26656,0.60806 -0.91217,0 -1.65849,0.26654 -1.65849,0.59232 0,0.32577 -0.9329,0.59231 -2.07311,0.59231 -1.81644,0 -2.0731,0.18334 -2.0731,1.4808 0,1.48079 0,1.48079 -5.92317,1.48079 -3.5539,0 -5.92317,-0.23693 -5.92317,-0.59232 z"
       style="opacity:1;fill:#9ecae1;fill-opacity:1;stroke:#ffffff;stroke-width:1;stroke-miterlimit:4;stroke-dasharray:none;stroke-opacity:1"
       inkscape:connector-curvature="0" />
    <path
       id="path2537"
       d="m 124.16098,157.84317 c 0,-0.25944 -0.76895,-0.81206 -1.70876,-1.22807 -2.42189,-1.07202 -4.21441,-2.75609 -4.21441,-3.95942 0,-0.56644 0.66636,-1.55406 1.48079,-2.1947 1.18115,-0.92909 1.4808,-1.69545 1.4808,-3.78722 0,-1.44235 0.26654,-2.62244 0.59231,-2.62244 0.32578,0 0.59232,-0.66635 0.59232,-1.48079 0,-1.15668 0.30268,-1.48079 1.38288,-1.48079 1.64151,0 4.54029,-3.02207 4.54029,-4.73341 0,-0.65437 0.23166,-1.18976 0.51481,-1.18976 0.28316,0 0.66736,-0.93996 0.85379,-2.0888 0.21438,-1.32119 1.11355,-2.84103 2.44676,-4.13575 1.49766,-1.45441 2.1078,-2.56436 2.1078,-3.83437 0,-1.08948 0.30661,-1.78741 0.78523,-1.78741 0.43188,0 1.36477,-0.6169 2.07311,-1.37089 1.01349,-1.07881 1.28788,-2.09524 1.28788,-4.77066 0,-2.96018 0.2294,-3.64452 1.77421,-5.29267 1.36528,-1.45661 1.77484,-1.65399 1.77695,-0.85635 0.002,0.5701 0.26928,1.03655 0.59506,1.03655 0.32577,0 0.59231,1.08668 0.59231,2.41483 0,3.24704 2.49801,5.8776 5.58145,5.8776 2.03452,0 2.11867,0.084 2.11867,2.11542 0,1.16347 0.38078,2.49619 0.84617,2.96158 1.10479,1.10481 6.65508,1.12965 7.75004,0.0347 0.59139,-0.5914 2.14616,-0.75943 5.73278,-0.61955 2.70673,0.10557 5.38775,0.20418 5.95786,0.21916 0.61255,0.0161 1.03655,0.48587 1.03655,1.14849 0,0.6167 0.39982,1.27468 0.88848,1.4622 0.69828,0.26796 0.88847,1.47703 0.88847,5.64808 0,3.92769 -0.23093,5.53806 -0.88847,6.1956 -0.9939,0.99389 -1.21525,3.93468 -0.29616,3.93468 0.32577,0 0.59232,0.79962 0.59232,1.77695 0,0.97732 -0.2168,1.77695 -0.48176,1.77695 -0.26498,0 -0.84781,0.93289 -1.29519,2.0731 -0.81694,2.08208 -2.14799,2.64979 -3.36328,1.43449 -1.07117,-1.07115 -3.97903,-0.39039 -4.62538,1.08286 -0.35852,0.81718 -1.10317,1.33271 -1.92503,1.33271 -0.73719,0 -1.34033,0.26655 -1.34033,0.59232 0,0.32577 -0.53309,0.59232 -1.18463,0.59232 -0.65155,0 -1.18464,0.26654 -1.18464,0.59231 0,0.32578 -0.53308,0.59232 -1.18463,0.59232 -0.65155,0 -1.18464,-0.26654 -1.18464,-0.59232 0,-0.87827 -5.18285,-0.73828 -5.48209,0.14808 -0.16773,0.49679 -1.59688,0.7404 -4.34365,0.7404 -3.67719,0 -4.15318,0.13559 -4.67839,1.33271 -0.76063,1.73372 -3.03719,1.74573 -4.43186,0.0234 -0.86815,-1.0721 -1.79752,-1.34763 -5.12964,-1.52074 -3.72173,-0.19336 -4.20857,-0.0795 -5.69828,1.33329 -0.89588,0.8496 -1.62887,1.33245 -1.62887,1.07302 z"
       style="opacity:1;fill:#4292c6;fill-opacity:1;stroke:#ffffff;stroke-width:1;stroke-miterlimit:4;stroke-dasharray:none;stroke-opacity:1"
       inkscape:connector-curvature="0" />
    <path
       id="path2539"
       d="m 175.10022,175.44411 c 0,-0.32578 -0.67472,-0.59232 -1.49938,-0.59232 -0.82467,0 -1.65281,-0.39981 -1.84032,-0.88847 -0.42838,-1.11632 -5.30292,-1.24193 -5.74676,-0.14808 -0.22684,0.559 -0.46764,0.52272 -0.98293,-0.14808 -0.51529,-0.67081 -0.7561,-0.70709 -0.98292,-0.14808 -0.18615,0.45877 -1.47106,0.7404 -3.37805,0.7404 -2.39815,0 -3.26614,-0.26155 -3.93146,-1.18464 -0.46961,-0.65155 -1.17577,-1.18463 -1.56924,-1.18463 -0.39347,0 -1.06763,-0.33318 -1.49812,-0.7404 -0.43047,-0.40722 -1.58233,-1.10446 -2.55965,-1.54943 -0.97732,-0.44498 -2.17676,-1.00495 -2.66543,-1.24438 -0.48866,-0.23944 -0.97281,-1.14145 -1.07589,-2.00446 -0.10309,-0.86303 -0.43626,-1.56913 -0.7404,-1.56913 -0.30414,0 -0.55297,-0.79963 -0.55297,-1.77695 0,-0.97733 0.26654,-1.77695 0.59231,-1.77695 0.32578,0 0.59232,-0.66636 0.59232,-1.48079 0,-1.10294 0.31308,-1.4808 1.22694,-1.4808 0.67483,0 1.62126,-0.39431 2.1032,-0.87625 0.6669,-0.66689 1.70193,-0.78995 4.33212,-0.51503 2.58074,0.26973 3.94609,0.11665 5.39177,-0.60455 1.06473,-0.53116 2.42295,-0.96575 3.01824,-0.96575 0.66052,0 1.22719,-0.57712 1.454,-1.48079 0.37525,-1.49512 1.64129,-1.98073 2.31634,-0.88848 0.20134,0.32578 1.08334,0.58948 1.95999,0.58601 1.97877,-0.008 5.44397,-3.40054 5.44397,-5.33009 v -1.36035 l 1.10604,1.27526 c 0.60831,0.70141 1.40794,1.27527 1.77694,1.27527 0.40184,0 0.67092,1.08597 0.67092,2.70774 0,3.36975 0.97342,4.40006 4.1571,4.40006 2.86738,0 5.91228,2.36316 5.91228,4.58853 0,0.73404 0.23451,1.33464 0.52113,1.33464 0.56466,0 1.25234,6.93146 0.808,8.14436 -0.14918,0.40721 -0.7758,0.74039 -1.3925,0.74039 -0.61669,0 -1.12126,0.39982 -1.12126,0.88848 0,0.48866 -0.39981,0.88847 -0.88847,0.88847 -0.48867,0 -0.88848,0.26654 -0.88848,0.59232 0,0.32577 -0.59972,0.59396 -1.33271,0.59596 -0.73299,0.002 -2.09618,0.40183 -3.02929,0.88848 -1.91604,0.99928 -5.70738,1.19359 -5.70738,0.29251 z"
       style="opacity:1;fill:#08306b;fill-opacity:1;stroke:#ffffff;stroke-width:1;stroke-miterlimit:4;stroke-dasharray:none;stroke-opacity:1"
       inkscape:connector-curvature="0" />
    <path
       id="path2541"
       d="m 138.40152,226.06118 c -0.80073,-0.43908 -1.6584,-1.34585 -1.90595,-2.01503 -0.24756,-0.66919 -0.85848,-1.2167 -1.35765,-1.2167 -0.49916,0 -0.90756,-0.36873 -0.90756,-0.8194 0,-0.45067 -0.53174,-0.95844 -1.18164,-1.1284 -0.64992,-0.16996 -1.36345,-0.80075 -1.58567,-1.40179 -0.22222,-0.60104 -0.69,-1.28862 -1.03954,-1.52796 -0.34954,-0.23935 0.0975,-0.43925 0.99335,-0.44424 0.89588,-0.005 1.62887,-0.27561 1.62887,-0.60138 0,-0.32578 0.36916,-0.59232 0.82035,-0.59232 0.79174,0 2.19461,-1.73802 3.75985,-4.65816 0.41287,-0.77023 0.75065,-2.30285 0.75065,-3.40582 0,-1.10297 0.26654,-2.0054 0.59232,-2.0054 0.33357,0 0.59231,-1.66658 0.59231,-3.8151 0,-2.09831 -0.26654,-3.97984 -0.59231,-4.18118 -0.74829,-0.46247 -0.78454,-5.03469 -0.0399,-5.03469 0.30382,0 0.73738,-0.58281 0.96346,-1.29513 0.22609,-0.71232 1.25869,-2.11167 2.29469,-3.10966 2.07145,-1.99545 3.88957,-5.44653 3.88957,-7.38298 0,-0.68377 0.26654,-1.2432 0.59231,-1.2432 0.32578,0 0.59232,-1.19944 0.59232,-2.66542 0,-1.46599 -0.26654,-2.66543 -0.59232,-2.66543 -0.87973,0 -0.71688,-1.737 0.25385,-2.70773 0.9298,-0.92981 3.30005,-1.15826 3.30005,-0.31806 0,0.29045 0.68982,0.70123 1.53293,0.91284 0.84311,0.2116 2.24245,1.04636 3.10966,1.855 1.53061,1.42726 1.79828,1.46553 9.14897,1.30835 4.56321,-0.0976 7.74073,0.0735 7.99628,0.43039 0.2332,0.32578 0.95713,0.88575 1.60867,1.24438 1.51139,0.83191 1.82797,3.39056 0.63097,5.09952 -0.50992,0.72802 -0.92712,2.06397 -0.92712,2.96881 0,1.25028 -0.28435,1.64515 -1.18464,1.64515 -0.97566,0 -1.18463,0.39488 -1.18463,2.23851 0,1.55902 0.35959,2.49769 1.18463,3.09234 1.71337,1.23492 1.47155,3.44761 -0.59231,5.41996 -2.06788,1.97618 -2.25571,3.45053 -0.59232,4.64943 1.21257,0.87397 1.65922,3.5539 0.59232,3.5539 -0.32578,0 -0.59232,1.33271 -0.59232,2.96158 0,1.62887 -0.24537,2.96159 -0.54525,2.96159 -0.2999,0 -0.72022,0.79657 -0.93405,1.77015 -0.21383,0.97359 -0.63483,1.92222 -0.93554,2.10807 -0.30069,0.18585 -0.54674,0.86799 -0.54674,1.51587 0,0.64787 -0.66636,1.79551 -1.4808,2.55031 -0.81443,0.7548 -1.48079,1.69997 -1.48079,2.1004 0,0.52949 -0.77872,0.62096 -2.85508,0.33539 -2.2192,-0.30521 -3.02688,-0.18568 -3.62643,0.53673 -0.86043,1.03675 -2.40324,1.25315 -2.40324,0.33709 0,-1.29897 -2.44566,-0.47643 -4.40288,1.48079 -2.0487,2.04872 -2.13086,2.07243 -6.97947,2.01504 -2.89251,-0.0342 -5.50392,-0.38576 -6.36221,-0.85641 z"
       style="opacity:1;fill:#2171b5;fill-opacity:1;stroke:#ffffff;stroke-width:1;stroke-miterlimit:4;stroke-dasharray:none;stroke-opacity:1"
       inkscape:connector-curvature="0" />
    <path
       id="path2543"
       d="m 132.41065,213.35238 c -0.22473,-1.83855 -0.46921,-2.09396 -2.16083,-2.2574 -1.70281,-0.16454 -1.83294,-0.30358 -1.21306,-1.29616 0.71828,-1.15018 -0.0436,-3.40452 -1.76612,-5.22542 -0.40722,-0.43048 -0.74039,-1.28102 -0.74039,-1.89007 0,-0.60905 -0.26655,-1.2721 -0.59232,-1.47344 -0.33249,-0.20549 -0.59232,-3.02697 -0.59232,-6.43198 0,-3.96136 -0.24906,-6.31496 -0.71784,-6.78375 -0.44188,-0.44188 -0.72652,-2.59385 -0.7404,-5.5974 -0.0213,-4.60138 -0.0985,-4.89033 -1.35526,-5.06882 -1.46584,-0.20818 -1.43082,-0.0331 -1.55119,-7.75671 -0.053,-3.40216 -0.31271,-5.06303 -0.81808,-5.23212 -1.03713,-0.34703 -0.8908,-1.40227 0.41081,-2.96252 0.80876,-0.96946 1.74944,-1.33272 3.45123,-1.33272 1.80399,0 2.59395,-0.33893 3.45146,-1.48079 0.84116,-1.12012 1.65487,-1.48079 3.34071,-1.48079 1.22576,0 2.22868,0.20366 2.22868,0.45259 0,0.72984 4.59259,2.50899 6.47656,2.50899 1.17572,0 2.13461,-0.51451 2.99322,-1.60606 1.02452,-1.30244 1.36292,-1.44492 1.79013,-0.75367 0.60839,0.98439 0.0563,6.11314 -0.68969,6.40723 -0.68152,0.26867 -0.63867,2.46799 0.0481,2.46799 0.91077,0 2.40809,3.4567 1.61221,3.72194 -0.4435,0.14782 -0.69173,2.13139 -0.71303,5.69816 -0.018,3.00929 -0.28495,5.65252 -0.59327,5.87385 -0.30832,0.22135 -0.95996,1.20207 -1.4481,2.17939 -0.48815,0.97732 -1.22072,2.12917 -1.62793,2.55966 -0.40722,0.43047 -0.7404,1.16347 -0.7404,1.62887 0,0.46538 -0.50419,0.84616 -1.12042,0.84616 -0.70113,0 -1.25951,0.55416 -1.49208,1.48079 -0.20441,0.81444 -0.63312,1.4808 -0.95268,1.4808 -0.76511,0 -0.75468,5.74593 0.0113,6.21932 0.32577,0.20134 0.59232,1.81633 0.59232,3.58886 0,1.77253 -0.26655,3.22278 -0.59232,3.22278 -0.32577,0 -0.59232,1.05044 -0.59232,2.33431 0,1.28387 -0.26654,2.49905 -0.59231,2.70039 -0.32578,0.20134 -0.59232,0.88343 -0.59232,1.51575 0,0.63232 -0.38127,1.14967 -0.84728,1.14967 -0.46602,0 -0.9517,0.59972 -1.07932,1.33271 -0.17222,0.98904 -0.29738,0.7981 -0.48543,-0.74039 z"
       style="opacity:1;fill:#4292c6;fill-opacity:1;stroke:#ffffff;stroke-width:1;stroke-miterlimit:4;stroke-dasharray:none;stroke-opacity:1"
       inkscape:connector-curvature="0" />
    <path
       id="path2545"
       d="m 123.91068,211.29259 c -0.7613,-0.30509 -1.686,-1.35436 -2.05491,-2.33172 -0.36893,-0.97736 -0.87886,-1.77701 -1.13321,-1.77701 -0.25435,0 -0.46246,-0.39982 -0.46246,-0.88848 0,-0.48866 -0.26654,-0.88847 -0.59231,-0.88847 -0.32578,0 -0.59232,-0.53309 -0.59232,-1.18464 0,-0.65154 -0.27314,-1.18463 -0.60698,-1.18463 -0.33381,0 -0.86032,-0.66636 -1.16997,-1.48079 -0.30964,-0.81444 -0.91627,-1.48079 -1.34804,-1.48079 -1.37189,0 -3.97339,-1.45253 -3.97819,-2.22119 -0.003,-0.49298 -0.99428,-0.7404 -2.9662,-0.7404 -1.62887,0 -2.96159,0.26655 -2.96159,0.59232 0,0.32577 -1.06617,0.59232 -2.36926,0.59232 -1.70516,0 -2.36927,-0.24764 -2.36927,-0.88346 0,-0.48591 -0.53308,-1.21637 -1.18463,-1.62327 -0.791022,-0.49401 -1.184632,-1.3813 -1.184632,-2.67045 0,-1.32124 -0.28045,-1.93062 -0.88848,-1.93062 -0.48866,0 -0.88847,-0.39982 -0.88847,-0.88848 0,-0.48866 -0.26655,-0.88847 -0.59232,-0.88847 -0.32577,0 -0.59232,-0.51191 -0.59232,-1.13757 0,-0.78237 -0.55485,-1.25944 -1.77695,-1.52786 -0.97732,-0.21465 -1.77695,-0.72761 -1.77695,-1.13989 0,-0.41229 -0.53308,-1.23205 -1.18463,-1.82169 -0.79335,-0.71798 -1.18463,-1.82432 -1.18463,-3.34955 0,-1.25259 -0.26655,-2.27746 -0.59232,-2.27746 -0.32577,0 -0.59232,-0.79963 -0.59232,-1.77695 0,-0.97732 0.26655,-1.77695 0.59232,-1.77695 0.32577,0 0.59232,-0.9329 0.59232,-2.07311 0,-1.14021 0.20147,-2.07311 0.44772,-2.07311 0.24623,0 0.81501,-0.86626 1.26391,-1.92503 1.84196,-4.34437 2.58477,-5.75467 3.37762,-6.41269 0.45866,-0.38064 0.83391,-1.19253 0.83391,-1.80419 0,-0.61166 0.26655,-1.11211 0.59232,-1.11211 0.32577,0 0.59232,-0.53308 0.59232,-1.18463 0,-1.25021 1.93807,-3.5539 2.989862,-3.5539 0.34134,0 1.23815,-0.66636 1.99295,-1.48079 0.7548,-0.81444 1.81987,-1.48079 2.36683,-1.48079 0.54696,0 1.65906,-0.61623 2.47131,-1.36939 1.16733,-1.0824 1.52976,-2.09635 1.72942,-4.83826 0.13892,-1.90787 0.55222,-3.65405 0.91842,-3.88037 0.3662,-0.22632 0.57586,-1.04771 0.46591,-1.8253 -0.17205,-1.21701 -0.61214,-1.46269 -3.16148,-1.76499 -1.62887,-0.19315 -2.62841,-0.39306 -2.22119,-0.44424 0.46865,-0.0589 0.7404,-1.06983 0.7404,-2.75442 0,-2.61734 1.62254,-7.40802 2.50899,-7.40802 0.24893,0 0.45259,-0.38078 0.45259,-0.84616 0,-0.46541 0.33318,-1.20965 0.7404,-1.65389 0.87208,-0.95139 2.06301,-2.76549 2.63605,-4.01543 0.73051,-1.59347 1.84151,-2.36927 3.39288,-2.36927 1.29066,0 1.5231,0.26584 1.5231,1.74199 0,0.9581 0.26655,1.90673 0.59232,2.10807 0.32578,0.20134 0.59232,1.25472 0.59232,2.34085 0,2.25996 0.70237,2.69519 4.34274,2.69101 1.95875,-0.002 2.90021,-0.40001 4.55628,-1.92503 1.14804,-1.0572 2.51513,-2.53515 3.03794,-3.28432 0.87651,-1.25598 1.02539,-1.2873 1.91076,-0.40193 1.20615,1.20614 1.24965,3.76327 0.0717,4.21528 -0.48866,0.18752 -0.88847,0.84551 -0.88847,1.4622 0,0.61669 -0.39982,1.12126 -0.88848,1.12126 -0.48866,0 -0.88847,0.39982 -0.88847,0.88848 0,0.48866 -0.26655,0.88847 -0.59232,0.88847 -0.32578,0 -0.59232,0.65063 -0.59232,1.44584 0,0.79521 -0.26654,1.61057 -0.59231,1.81191 -0.32578,0.20134 -0.59232,1.13789 -0.59232,2.08122 0,1.52145 -0.25085,1.75685 -2.22119,2.0843 -3.49364,0.58063 -3.70198,0.72653 -3.70198,2.59257 0,0.96832 -0.26654,1.92532 -0.59232,2.12666 -0.32577,0.20134 -0.59691,1.34988 -0.60255,2.5523 -0.007,1.52201 -0.4369,2.59066 -1.41457,3.51739 -1.62907,1.54417 -2.51653,5.18843 -1.54775,6.35574 0.35852,0.43201 1.33951,0.95805 2.17993,1.16898 0.84044,0.21093 1.88611,0.74158 2.32375,1.17922 0.66606,0.66605 0.60614,0.84527 -0.36771,1.09993 -0.63987,0.16733 -1.16341,0.69793 -1.16341,1.17909 0,0.48115 -0.53174,1.0139 -1.18164,1.18385 -1.92429,0.50321 -2.03739,1.99483 -0.28423,3.74798 1.55103,1.55106 1.58946,1.7488 1.20217,6.18858 -0.38519,4.41568 -0.3429,4.63933 1.13645,6.01106 1.33955,1.24212 1.55729,1.97129 1.69857,5.68847 0.0891,2.34505 0.47996,4.58162 0.86848,4.97015 0.45504,0.45503 0.70642,2.86498 0.70642,6.77232 0,3.33624 0.23153,6.209 0.51451,6.38389 0.28298,0.17489 0.67607,1.32343 0.87352,2.55231 0.21202,1.31946 0.85018,2.53952 1.55859,2.97972 1.23656,0.76837 1.65809,2.51233 0.60728,2.51233 -0.32578,0 -0.59232,0.79963 -0.59232,1.77695 0,1.87574 -0.52369,2.08543 -2.86493,1.14715 z"
       style="opacity:1;fill:#4292c6;fill-opacity:1;stroke:#ffffff;stroke-width:1;stroke-miterlimit:4;stroke-dasharray:none;stroke-opacity:1"
       inkscape:connector-curvature="0" />
    <path
       id="path2547"
       d="m 58.066852,186.69813 c 0,-0.3485 -2.075785,-0.59232 -5.04273,-0.59232 -2.773511,0 -5.638831,-0.30816 -6.367404,-0.6848 -0.728585,-0.37663 -1.787505,-0.90972 -2.353192,-1.18463 -0.565674,-0.27491 -3.633442,-0.49984 -6.817239,-0.49984 -5.029676,0 -5.880165,-0.14641 -6.486052,-1.11659 -0.5832,-0.93382 -0.46108,-1.33852 0.745999,-2.47251 0.834563,-0.78404 1.443316,-2.02675 1.443316,-2.94644 0,-1.03825 0.717651,-2.28783 2.0668,-3.59874 1.889811,-1.83625 2.067346,-2.30215 2.073109,-5.44095 0.0052,-2.85977 -0.23637,-3.67543 -1.447563,-4.88661 -0.799639,-0.79964 -1.732526,-1.45388 -2.073108,-1.45388 -0.340594,0 -0.619238,-0.39981 -0.619238,-0.88847 0,-0.48866 -0.399814,-0.88848 -0.888475,-0.88848 -0.488661,0 -0.888475,-0.39981 -0.888475,-0.88847 0,-0.48866 -0.201477,-0.88848 -0.447726,-0.88848 -0.563349,0 -1.699509,-2.65847 -2.214919,-5.18277 -0.21619,-1.05876 -0.618,-1.92503 -0.89292,-1.92503 -0.7569,0 1.25212,-3.70894 2.63627,-4.8669 0.668508,-0.55926 1.792962,-1.02572 2.498808,-1.03656 0.705828,-0.0108 1.375146,-0.29508 1.487337,-0.63166 0.118677,-0.35606 2.343418,-0.61989 5.320118,-0.63094 5.074697,-0.0188 5.133401,-0.0363 7.249329,-2.15219 1.424166,-1.42419 2.133205,-2.67939 2.133205,-3.77648 0,-0.9038 0.235392,-1.78875 0.523092,-1.96656 0.2877,-0.17781 0.706687,-1.79279 0.931092,-3.58885 0.224406,-1.79606 0.655369,-3.26558 0.957706,-3.26558 0.30233,0 0.549693,-0.55212 0.549693,-1.22694 0,-0.67481 0.380777,-1.60771 0.846166,-2.07311 0.970724,-0.97073 2.707734,-1.13358 2.707734,-0.25385 0,0.32578 0.533086,0.59232 1.184634,0.59232 0.651548,0 1.184633,0.26654 1.184633,0.59232 0,0.32577 0.666357,0.59231 1.480792,0.59231 1.085912,0 1.480792,-0.3159 1.480792,-1.18463 0,-0.81433 -0.39488,-1.18463 -1.263234,-1.18463 -1.415104,0 -3.058439,-1.65183 -4.192743,-4.21441 -0.416014,-0.93982 -0.93284,-1.70876 -1.148514,-1.70876 -0.215681,0 -0.575442,-1.33271 -0.799468,-2.96158 -0.224026,-1.62887 -0.648853,-2.96159 -0.944058,-2.96159 -1.318195,0 -0.331058,-2.62908 1.832533,-4.88073 1.303097,-1.35614 2.369267,-2.81183 2.369267,-3.23486 0,-0.42304 0.266542,-0.76916 0.592317,-0.76916 0.325774,0 0.592316,-0.61829 0.592316,-1.37397 0,-1.62082 2.461473,-3.956878 4.169312,-3.956878 0.65929,0 1.35214,-0.399814 1.539656,-0.888475 0.187522,-0.488662 0.720536,-0.888475 1.184485,-0.888475 0.915473,0 7.914465,-6.983853 7.914465,-7.897341 0,-0.306969 0.932899,-1.354996 2.073109,-2.328936 1.14021,-0.973947 2.073108,-2.269971 2.073108,-2.880064 0,-0.610098 0.266543,-1.109261 0.592317,-1.109261 0.325774,0 0.592317,-0.666356 0.592317,-1.480791 0,-0.814436 0.266542,-1.480792 0.592317,-1.480792 0.35071,0 0.592316,-2.160173 0.592316,-5.295892 0,-2.912741 -0.266542,-5.460627 -0.592316,-5.661968 -0.884868,-0.54688 -0.71469,-2.418808 0.296158,-3.257742 0.775609,-0.6437 0.888475,-0.201458 0.888475,3.481378 v 4.21874 h 2.830824 c 2.151336,0 3.035771,-0.284348 3.68466,-1.184634 0.517768,-0.718361 1.533324,-1.184633 2.580185,-1.184633 1.089898,0 2.242718,-0.557175 3.126982,-1.511308 1.294692,-1.396985 1.400634,-1.421424 1.400634,-0.323085 0,1.520572 2.663606,4.20366 4.173137,4.20366 0.933041,0 1.157713,0.41131 1.157713,2.119558 0,1.683512 0.482667,2.597421 2.346144,4.442375 1.29036,1.277556 2.62309,2.322818 2.96159,2.322818 1.27402,0 0.55363,1.769889 -0.86536,2.126038 -1.15242,0.28924 -1.48079,0.751454 -1.48079,2.084392 0,0.942002 0.26654,1.712737 0.59231,1.712737 0.33376,0 0.59232,1.67054 0.59232,3.826982 0,5.062063 0.98449,6.03422 6.67902,6.59534 l 4.14605,0.408544 -0.31401,7.742333 c -0.19771,4.87452 -0.55706,7.82336 -0.97016,7.96106 -0.3609,0.12028 -0.65615,0.77106 -0.65615,1.44615 0,0.67509 -0.66636,2.10109 -1.48079,3.16887 -0.81444,1.06777 -1.48079,2.18443 -1.48079,2.48145 0,0.29702 -0.54553,1.03373 -1.21228,1.63714 -0.66674,0.60339 -1.6524,2.04406 -2.19033,3.20146 -0.53792,1.15739 -1.23994,2.28309 -1.56002,2.50154 -0.32008,0.21844 -0.69919,2.0176 -0.84245,3.99814 -0.14324,1.98053 -0.49498,3.60096 -0.7816,3.60096 -0.28663,0 -0.52112,0.42598 -0.52112,0.94664 0,0.80458 -0.51676,0.88665 -3.443718,0.54694 -3.930051,-0.45612 -4.465126,-0.0998 -5.094481,3.39303 -0.220128,1.22166 -0.654699,2.22119 -0.965707,2.22119 -0.311025,0 -0.565479,0.66636 -0.565479,1.48079 0,0.81444 -0.245367,1.4808 -0.545251,1.4808 -0.299896,0 -0.733193,0.86626 -0.962894,1.92503 -0.470844,2.17036 -1.153323,2.7913 -3.082309,2.80443 -0.934812,0.006 -1.332713,0.36276 -1.332713,1.1937 0,0.65813 -0.39488,1.18464 -0.888475,1.18464 -0.488661,0 -0.888475,0.26654 -0.888475,0.59231 0,0.32578 -0.932899,0.59232 -2.073109,0.59232 h -2.073108 v 3.25774 c 0,3.01707 -0.102003,3.25774 -1.380702,3.25774 -0.86656,0 -1.675824,0.55144 -2.173198,1.4808 -0.435874,0.81443 -1.317793,1.48079 -1.959822,1.48079 -1.511522,0 -2.736059,1.64255 -2.759876,3.70198 -0.01036,0.89588 -0.352014,1.63095 -0.759232,1.63349 -1.226931,0.008 -2.221188,2.98325 -2.221188,6.64754 0,2.52418 -0.239254,3.54621 -0.888475,3.79534 -0.603186,0.23147 -0.888475,1.17646 -0.888475,2.943 0,2.38064 -0.125997,2.60205 -1.480792,2.60205 -0.814435,0 -1.480791,-0.26654 -1.480791,-0.59232 0,-0.32577 -0.666357,-0.59231 -1.480792,-0.59231 -1.085912,0 -1.480792,0.3159 -1.480792,1.18463 0,0.86873 -0.39488,1.18463 -1.480792,1.18463 -0.814435,0 -1.480792,-0.26654 -1.480792,-0.59231 z"
       style="opacity:1;fill:#4292c6;fill-opacity:1;stroke:#ffffff;stroke-width:1;stroke-miterlimit:4;stroke-dasharray:none;stroke-opacity:1"
       inkscape:connector-curvature="0" />
    <path
       id="path2549"
       d="m 46.220514,230.96717 c 0,-0.37563 -0.35335,-0.68295 -0.78522,-0.68295 -0.43188,0 -1.41124,-0.66636 -2.17636,-1.48079 -0.76513,-0.81444 -2.01103,-1.48079 -2.76867,-1.48079 -0.75765,0 -1.37755,-0.26655 -1.37755,-0.59232 0,-0.32577 -0.66635,-0.59232 -1.48079,-0.59232 -0.81443,0 -1.48079,-0.26654 -1.48079,-0.59231 0,-0.32578 -0.90026,-0.59232 -2.00059,-0.59232 -1.10031,0 -2.33239,-0.39981 -2.73794,-0.88848 -0.40556,-0.48866 -1.10455,-0.88847 -1.55332,-0.88847 -0.44877,0 -0.81595,-0.26654 -0.81595,-0.59232 0,-0.32577 -0.39982,-0.59231 -0.88848,-0.59231 -0.48866,0 -0.88847,-0.30192 -0.88847,-0.67092 0,-0.87903 -2.32746,-2.88298 -3.34837,-2.88298 -0.43881,0 -0.79785,-0.26655 -0.79785,-0.59232 0,-0.32578 -0.39981,-0.59232 -0.88847,-0.59232 -0.48866,0 -0.88848,-0.39981 -0.88848,-0.88847 0,-1.00795 1.56706,-1.22201 1.88841,-0.25795 0.11559,0.34679 1.35077,0.78351 2.74484,0.97049 2.16626,0.29057 2.76704,0.12015 4.13348,-1.17248 0.87936,-0.83185 2.26245,-1.60175 3.07355,-1.71089 0.90824,-0.12221 1.56113,-0.65111 1.69963,-1.37687 0.12368,-0.64812 0.72613,-1.52951 1.33876,-1.95861 0.83486,-0.58475 1.11388,-1.51365 1.11388,-3.70819 0,-1.6104 -0.24611,-2.928 -0.54692,-2.928 -0.30081,0 -0.13198,-0.83174 0.37515,-1.84832 0.69301,-1.38919 0.83104,-2.823 0.55565,-5.77217 -0.20152,-2.15813 -0.63689,-4.01402 -0.96746,-4.12421 -0.3306,-0.11019 -0.60105,-0.8445 -0.60105,-1.63178 0,-0.78728 -0.26147,-1.43143 -0.58103,-1.43143 -0.31956,0 -0.74828,-0.66636 -0.95269,-1.4808 -0.20441,-0.81443 -0.6093,-1.48079 -0.89976,-1.48079 -0.29046,0 -0.5281,-0.26654 -0.5281,-0.59231 0,-0.34552 1.97438,-0.59232 4.73853,-0.59232 2.76415,0 4.73853,0.2468 4.73853,0.59232 0,0.32577 0.65063,0.59231 1.44584,0.59231 0.79521,0 1.61056,0.26655 1.81191,0.59232 0.20134,0.32577 0.88342,0.59232 1.51575,0.59232 0.990355,0 1.151495,0.43091 1.162844,3.10966 0.0092,2.17121 0.362729,3.55655 1.17146,4.59045 0.637061,0.81444 1.164217,1.9442 1.171461,2.51058 0.01981,1.54919 1.877744,3.41259 3.402551,3.41259 0.742043,0 1.349155,0.26654 1.349155,0.59232 0,0.32577 0.399814,0.59231 0.888476,0.59231 1.038769,0 2.877954,1.70984 3.454059,3.21115 0.2211,0.57615 0.933716,1.18659 1.583624,1.35655 0.64989,0.16994 1.181642,0.54446 1.181642,0.83224 0,0.28777 0.399814,0.52323 0.888475,0.52323 0.588354,0 0.888475,0.58843 0.888475,1.74199 0,0.9581 0.266543,1.90673 0.592317,2.10807 0.747302,0.46186 0.775408,3.42674 0.03958,4.17583 -0.304006,0.30949 -0.637184,1.62887 -0.740395,2.93197 -0.169835,2.14415 -0.35651,2.38767 -1.964614,2.56293 -0.977323,0.10652 -2.030166,0.43968 -2.339651,0.74039 -0.30948,0.30072 -1.461329,0.54674 -2.559656,0.54674 -1.90415,0 -3.689286,1.07857 -3.689286,2.22905 0,0.86699 -3.45599,3.69412 -4.515852,3.69412 -0.534732,0 -1.469919,0.57386 -2.078229,1.27526 -0.60833,0.70139 -1.10604,0.96794 -1.10604,0.59232 z"
       style="opacity:1;fill:#2171b5;fill-opacity:1;stroke:#ffffff;stroke-width:1;stroke-miterlimit:4;stroke-dasharray:none;stroke-opacity:1"
       inkscape:connector-curvature="0" />
    <path
       id="path2557"
       d="m 142.96703,251.2699 c -0.89587,-0.94086 -1.62887,-2.26074 -1.62887,-2.93306 0,-0.67233 -0.26654,-1.22241 -0.59231,-1.22241 -0.32578,0 -0.59232,-0.53231 -0.59232,-1.18293 0,-1.5843 -3.98687,-5.92487 -5.44208,-5.92487 -1.25343,0 -2.85035,1.30368 -2.85035,2.32696 0,0.34905 -0.39982,0.63462 -0.88848,0.63462 -0.48866,0 -0.88847,0.26655 -0.88847,0.59232 0,0.32578 -0.39982,0.59232 -0.88848,0.59232 -0.48866,0 -0.88847,0.39981 -0.88847,0.88847 0,0.55283 -0.55941,0.88848 -1.4808,0.88848 -0.81443,0 -1.48079,-0.30625 -1.48079,-0.68056 0,-0.3743 -0.9329,-1.58658 -2.07311,-2.69394 -1.14021,-1.10736 -2.0731,-2.53363 -2.0731,-3.1695 0,-0.83832 -0.40706,-1.15612 -1.4808,-1.15612 -1.08591,0 -1.48079,-0.3159 -1.48079,-1.18463 0,-0.65155 -0.26654,-1.18464 -0.59232,-1.18464 -0.32577,0 -0.59231,-0.38651 -0.59231,-0.85891 0,-0.62882 -0.9023,-0.9065 -3.36812,-1.03656 -3.15517,-0.1664 -3.30496,-0.24049 -2.36926,-1.17188 0.54936,-0.54684 0.99884,-1.27983 0.99884,-1.62887 0,-0.34905 0.39982,-0.63463 0.88848,-0.63463 0.60783,0 0.88847,-0.60915 0.88847,-1.92851 0,-2.02197 1.00582,-2.7692 4.92385,-3.65797 0.91635,-0.20787 2.51376,-1.30156 3.5498,-2.43042 1.03604,-1.12887 2.38736,-2.05248 3.00295,-2.05248 0.61559,0 1.61697,-0.57387 2.22529,-1.27526 0.7916,-0.91271 1.10603,-1.02728 1.10603,-0.40298 0,0.47976 0.59972,1.42036 1.33272,2.09021 2.1761,1.98868 4.34802,4.555 4.73441,5.59415 0.73092,1.96576 3.89827,2.87863 9.98791,2.87863 h 5.80367 l 2.04592,-2.10664 c 1.21895,-1.25511 2.20229,-1.85366 2.43274,-1.48079 0.53234,0.86136 3.71701,0.791 4.01022,-0.0886 0.14731,-0.44195 1.20031,-0.65768 2.76086,-0.5656 1.89008,0.11152 2.94829,0.58421 4.21984,1.88498 0.93342,0.95488 1.44577,1.89149 1.13855,2.08136 -0.74345,0.45946 -0.71724,3.66122 0.0337,4.12536 1.10225,0.68123 0.60076,2.04842 -0.88848,2.4222 -0.92663,0.23256 -1.48079,0.79094 -1.48079,1.49207 0,0.94963 -0.45145,1.12042 -2.96158,1.12042 -2.76415,0 -2.96158,0.0987 -2.96158,1.48079 0,0.81444 -0.26655,1.48079 -0.59232,1.48079 -0.32578,0 -0.59232,0.66636 -0.59232,1.4808 0,1.38207 -0.19744,1.48079 -2.96158,1.48079 -2.23764,0 -2.96159,0.21718 -2.96159,0.88847 0,0.48866 -0.39981,0.88848 -0.88847,0.88848 -0.62052,0 -0.88848,0.62522 -0.88848,2.07311 0,1.14021 -0.26654,2.07311 -0.59231,2.07311 -0.32578,0 -0.59232,0.39981 -0.59232,0.88847 0,0.48866 -0.39981,0.88848 -0.88847,0.88848 -0.48867,0 -0.88848,0.26654 -0.88848,0.59231 0,1.21916 -2.72424,0.47351 -4.2943,-1.17538 z"
       style="opacity:1;fill:#9ecae1;fill-opacity:1;stroke:#ffffff;stroke-width:1;stroke-miterlimit:4;stroke-dasharray:none;stroke-opacity:1"
       inkscape:connector-curvature="0" />
    <path
       id="path2559"
       d="m 119.42244,124.76916 c 0,-0.63232 -0.26654,-1.31441 -0.59231,-1.51575 -0.32578,-0.20134 -0.59232,-1.28324 -0.59232,-2.40423 0,-1.12098 -0.26654,-2.03815 -0.59232,-2.03815 -0.32577,0 -0.59231,-0.39981 -0.59231,-0.88847 0,-0.59526 -0.5953,-0.88848 -1.80379,-0.88848 -1.76203,0 -1.79435,-0.0514 -1.39588,-2.22119 0.22435,-1.22165 0.63623,-2.31003 0.91531,-2.41862 0.85603,-0.3331 0.62094,-13.693095 -0.25641,-14.570434 -0.42009,-0.420095 -2.61907,-0.961863 -4.88661,-1.20392 -2.26753,-0.242068 -4.31862,-0.745572 -4.55797,-1.11891 -0.23935,-0.373337 -0.4182,-2.011513 -0.39747,-3.640384 0.0207,-1.628871 0.17213,-2.628406 0.33645,-2.221188 0.19884,0.492784 1.67751,0.740396 4.42146,0.740396 3.56404,0 4.33663,-0.198361 5.7013,-1.463757 0.95781,-0.888107 1.72794,-1.222109 1.95835,-0.849293 0.21188,0.342821 3.7879,0.766037 8.0891,0.957332 l 7.70935,0.342862 -0.80515,1.542991 c -1.7534,3.360231 -1.3918,3.616082 5.11073,3.616082 5.85255,0 5.92316,0.0169 5.92316,1.41742 0,1.444418 0.97503,2.13648 3.01003,2.13648 0.6249,0 1.13619,0.249656 1.13619,0.554788 0,0.305126 0.83938,0.63831 1.86529,0.740396 2.02721,0.201713 3.66186,1.973829 2.50884,2.719819 -0.3633,0.23505 -0.84411,1.0157 -1.06844,1.73478 -0.36355,1.16537 -0.86927,1.32624 -4.655,1.48079 -3.72656,0.15213 -4.32854,0.33722 -4.91132,1.51005 -0.36529,0.73516 -1.63826,2.38945 -2.82879,3.67618 -2.06495,2.23181 -2.1646,2.53158 -2.1646,6.51153 v 4.17202 h -1.77192 c -1.13046,0 -2.03977,-0.42887 -2.51175,-1.18463 -1.39147,-2.22808 -3.4392,-1.41776 -5.19339,2.05511 -1.42469,2.82051 -2.78818,3.86805 -5.0347,3.86805 -1.65722,0 -2.07311,-0.23063 -2.07311,-1.14967 z"
       style="opacity:1;fill:#08306b;fill-opacity:1;stroke:#ffffff;stroke-width:1;stroke-miterlimit:4;stroke-dasharray:none;stroke-opacity:1"
       inkscape:connector-curvature="0" />
    <path
       id="path2561"
       d="m 105.20684,87.418247 c 0,-0.325775 -0.46645,-0.613362 -1.03655,-0.639081 -0.81677,-0.03685 -0.85041,-0.119825 -0.15866,-0.391349 1.50083,-0.589101 2.38063,-1.789584 2.36101,-3.221558 -0.0212,-1.545792 -1.25739,-3.44813 -2.24073,-3.44813 -1.49076,0 -3.6636,-3.027058 -3.6636,-5.103922 0,-2.190523 -1.082968,-3.780829 -2.574671,-3.780829 -1.653173,0 -2.75618,-0.717088 -2.75618,-1.791876 0,-2.091583 -0.705911,-2.946657 -2.432638,-2.946657 -0.942465,0 -1.713579,0.266542 -1.713579,0.592316 0,0.325775 -0.399813,0.592317 -0.888475,0.592317 -0.488661,0 -0.888475,0.399814 -0.888475,0.888475 0,0.596907 -0.59702,0.888475 -1.819259,0.888475 -1.000601,0 -2.219073,0.399814 -2.707735,0.888475 -0.488649,0.488662 -1.389219,0.888475 -2.001236,0.888475 -0.939184,0 -1.140477,-0.531237 -1.29041,-3.405821 -0.148263,-2.842362 -0.39209,-3.499958 -1.473891,-3.974818 -0.712924,-0.312945 -1.42098,-1.045937 -1.573418,-1.628871 -0.152427,-0.582929 -0.688717,-1.059874 -1.19173,-1.059874 -0.593477,0 -0.170747,-0.722389 1.204044,-2.057572 l 2.118628,-2.057572 -0.96335,-2.030089 c -0.529839,-1.11654 -0.963344,-2.322971 -0.963344,-2.680955 0,-0.357991 -0.235458,-0.650879 -0.523235,-0.650879 -0.287783,0 -0.662636,-0.533085 -0.833022,-1.184634 -0.17763,-0.679209 -0.807926,-1.184633 -1.47735,-1.184633 -0.642155,0 -1.499373,-0.399814 -1.904927,-0.888475 -0.509451,-0.613854 -0.53187,-0.888475 -0.07252,-0.888475 0.365661,0 0.66484,-0.879762 0.66484,-1.955025 0,-1.075262 0.333178,-2.672432 0.740396,-3.549274 0.664425,-1.430676 1.056717,-1.594736 3.823138,-1.598882 2.494856,-0.0037 3.365129,-0.287013 4.563528,-1.485412 1.001507,-1.001524 2.135657,-1.480792 3.504134,-1.480792 1.58254,0 2.523938,-0.516044 4.321217,-2.368739 1.496565,-1.542731 2.82458,-2.368924 3.808288,-2.369267 0.83073,-2.9e-4 1.828417,-0.318536 2.217101,-0.70722 0.404611,-0.404594 2.479497,-0.722277 4.853944,-0.743157 3.73809,-0.03287 4.29601,-0.196892 5.65506,-1.662573 0.82929,-0.894357 1.83801,-1.626111 2.24157,-1.626111 0.40356,0 1.11797,-0.533085 1.58758,-1.184634 0.89411,-1.240506 2.36926,-1.6093 2.36926,-0.592316 0,0.325774 1.31699,0.592316 2.92663,0.592316 1.60964,0 3.09136,-0.266542 3.2927,-0.592316 0.20134,-0.325774 2.21614,-0.592317 4.47733,-0.592317 3.32151,0 4.33882,-0.227562 5.2959,-1.184633 0.65154,-0.651549 1.18463,-1.555934 1.18463,-2.009737 0,-0.453809 0.39981,-0.978525 0.88847,-1.166047 0.48867,-0.187515 0.88848,-0.853871 0.88848,-1.480791 0,-1.492135 1.51101,-2.040229 2.60597,-0.945267 0.4748,0.474825 1.16793,0.863308 1.54025,0.863308 0.8546,0 2.36926,-1.487621 2.36926,-2.326958 0,-0.349052 1.13281,-0.643493 2.51735,-0.654332 3.48797,-0.02731 5.18277,-1.536873 5.18277,-4.616333 0,-1.343321 -0.32127,-2.503403 -0.7404,-2.673469 -0.55718,-0.2260754 -0.52053,-0.4559121 0.14808,-0.9287644 1.29229,-0.9139092 3.92276,-0.7853172 4.95008,0.2419969 0.48867,0.4886613 1.11014,0.8884751 1.38107,0.8884751 0.27094,0 1.21124,0.6663563 2.08957,1.4807914 0.87834,0.814436 1.8085,1.483629 2.06706,1.4871 0.25854,0.0035 1.37378,0.936364 2.4783,2.073109 1.10452,1.136739 2.23733,2.0668 2.51734,2.0668 0.84188,0 2.8784,2.304918 2.8784,3.257742 0,0.488661 0.26654,0.888475 0.59232,0.888475 0.99113,0 0.71006,4.566608 -0.30505,4.956145 -1.46626,0.562648 -2.02828,3.014638 -1.58883,6.931847 0.30854,2.750476 0.70492,3.84814 1.56632,4.337666 3.4491,1.960094 3.96868,2.933893 4.01499,7.524797 0.097,9.616778 -0.0894,11.788548 -1.01172,11.788548 -0.97414,0 -8.00656,7.017686 -8.00656,7.989802 0,0.337721 -0.59972,0.87715 -1.33271,1.198731 -1.08486,0.475944 -1.44835,0.364369 -1.95444,-0.59994 -0.56095,-1.068824 -1.11104,-1.164927 -5.627,-0.983056 -2.75293,0.110858 -5.09414,0.444042 -5.20273,0.740396 -0.10861,0.296341 -1.22567,0.538818 -2.48239,0.538818 -1.25674,0 -2.44968,0.266543 -2.65102,0.592317 -0.20135,0.325774 -1.81633,0.592317 -3.58886,0.592317 -1.77254,0 -3.22279,-0.266543 -3.22279,-0.592317 0,-0.340991 -1.8221,-0.58964 -4.29429,-0.586009 -4.06326,0.006 -4.39368,0.109537 -6.14153,1.92503 -1.01599,1.055295 -2.05366,2.585077 -2.30596,3.399513 -0.25231,0.814435 -1.06709,2.013877 -1.81062,2.665425 -1.16849,1.023914 -1.33875,1.700606 -1.25503,4.987698 0.0655,2.569718 -0.14096,3.882334 -0.63645,4.047495 -0.40333,0.134432 -0.7333,0.888582 -0.7333,1.675866 0,0.787283 -0.27818,1.431434 -0.61817,1.431434 -0.33999,0 -1.3368,0.666356 -2.21514,1.480791 -1.34994,1.251755 -2.17049,1.480792 -5.30499,1.480792 -2.07713,0 -3.70804,-0.260518 -3.70804,-0.592316 z"
       style="opacity:1;fill:#9ecae1;fill-opacity:1;stroke:#ffffff;stroke-width:1;stroke-miterlimit:4;stroke-dasharray:none;stroke-opacity:1"
       inkscape:connector-curvature="0" />
    <path
       id="path2563"
       d="m 181.78641,77.994452 c -0.38859,-0.622258 -1.51887,-1.30979 -2.51173,-1.527863 -0.99285,-0.218068 -1.8052,-0.727051 -1.8052,-1.131082 0,-0.404031 -0.66838,-1.315749 -1.4853,-2.026043 -1.68163,-1.462176 -6.5233,-1.845754 -6.95566,-0.551056 -0.1881,0.563204 -3.45308,0.740396 -13.64264,0.740396 -9.92632,0 -13.58722,0.191744 -14.13617,0.740396 -0.40742,0.407217 -1.45822,0.740395 -2.33506,0.740395 -1.24443,0 -1.68381,-0.356705 -2.00227,-1.62556 -0.53834,-2.144897 -1.39494,-3.112973 -2.75454,-3.112973 -0.61166,0 -1.11211,-0.266543 -1.11211,-0.592317 0,-0.325774 -0.74632,-0.592317 -1.65849,-0.592317 -0.91217,0 -1.9117,-0.24067 -2.22119,-0.534826 -0.30949,-0.294145 -1.09578,-0.663045 -1.74733,-0.819761 -0.65155,-0.156721 0.61453,-0.315864 2.81351,-0.353654 2.31635,-0.0398 3.99813,0.180443 3.99813,0.523608 0,0.333569 1.66658,0.592317 3.8151,0.592317 2.09831,0 3.97984,-0.266543 4.18118,-0.592317 0.20134,-0.325774 1.41651,-0.592317 2.70038,-0.592317 1.28387,0 2.33431,-0.234504 2.33431,-0.521126 0,-0.564662 6.93146,-1.252341 8.14436,-0.808003 0.40721,0.149187 0.74039,0.775805 0.74039,1.392501 0,2.543521 2.51332,1.029138 8.98145,-5.411702 l 6.56065,-6.532963 0.0772,-7.920968 c 0.077,-7.90872 0.29357,-8.562673 2.03576,-6.147851 0.42569,0.590054 1.15868,1.07281 1.62887,1.07281 0.47019,0 0.85489,0.231667 0.85489,0.514818 0,0.283139 0.95587,0.669934 2.12415,0.859517 1.60781,0.260909 3.04765,1.291191 5.92317,4.238363 2.08946,2.141515 3.79901,4.131398 3.79901,4.42197 0,0.290579 0.31534,0.633424 0.70075,0.761897 0.38543,0.128468 0.85186,1.529392 1.03655,3.113152 0.28002,2.401015 0.63112,3.052273 2.11276,3.918708 0.97733,0.571515 2.47731,1.058606 3.3333,1.082417 0.85599,0.02381 1.88816,0.443107 2.29371,0.931768 0.40556,0.488661 1.09841,0.888475 1.53966,0.888475 0.44128,0 1.23891,0.666356 1.77255,1.480792 0.66381,1.013122 1.50994,1.480792 2.67908,1.480792 0.93987,0 1.70883,0.266542 1.70883,0.592316 0,0.325775 0.73299,0.60921 1.62887,0.629864 1.56573,0.03609 1.57722,0.05831 0.29616,0.573226 -1.09764,0.441199 -1.33271,0.993215 -1.33271,3.129571 0,2.765639 -1.45643,5.144407 -3.14971,5.144407 -0.51569,0 -1.20265,0.466449 -1.52653,1.036554 -0.49693,0.874692 -0.77775,0.92094 -1.79835,0.296158 -1.43749,-0.879999 -7.1487,-0.998302 -7.1487,-0.148079 0,0.325774 -0.66635,0.592317 -1.48079,0.592317 -0.81444,0 -1.48079,0.266543 -1.48079,0.592317 0,0.326313 -1.53202,0.592316 -3.41142,0.592316 -2.71639,0 -3.55537,-0.2305 -4.11798,-1.131366 z"
       style="opacity:1;fill:#08306b;fill-opacity:1;stroke:#ffffff;stroke-width:1;stroke-miterlimit:4;stroke-dasharray:none;stroke-opacity:1"
       inkscape:connector-curvature="0" />
    <path
       id="path2565"
       d="m 206.19684,64.317894 c -0.20134,-0.325774 -0.89554,-0.592316 -1.54267,-0.592316 -0.64711,0 -1.82228,-0.645679 -2.61143,-1.434834 -0.78917,-0.789156 -1.97649,-1.606754 -2.63851,-1.816867 -0.66199,-0.210112 -1.20366,-0.63061 -1.20366,-0.934433 0,-0.303822 -0.9329,-0.5524 -2.07311,-0.5524 -1.14021,0 -2.07311,-0.266543 -2.07311,-0.592317 0,-0.325774 -0.39981,-0.592316 -0.88847,-0.592316 -0.59232,0 -0.88848,-0.592317 -0.88848,-1.776951 0,-0.977322 -0.26654,-1.77695 -0.59232,-1.77695 -0.32577,0 -0.59231,-0.541448 -0.59231,-1.20322 0,-0.661784 -0.39982,-1.356648 -0.88848,-1.544164 -0.48866,-0.187521 -0.88847,-0.724243 -0.88847,-1.192718 0,-0.468481 -1.77962,-2.596699 -3.95472,-4.729383 -2.79179,-2.737362 -4.53356,-3.971549 -5.92317,-4.19705 -1.08264,-0.175693 -1.96845,-0.551103 -1.96845,-0.834248 0,-0.283157 -0.66635,-0.514818 -1.48079,-0.514818 -0.81443,0 -1.48079,-0.28558 -1.48079,-0.634626 0,-0.988997 -1.57823,-2.324967 -2.7712,-2.345793 -0.59336,-0.01037 -1.59625,-0.41018 -2.22862,-0.888475 -0.63239,-0.478302 -1.63191,-0.86964 -2.22119,-0.86964 -0.87198,0 -1.07142,-0.48702 -1.07142,-2.616067 0,-1.538644 -0.30493,-2.739104 -0.7404,-2.91482 -0.59232,-0.239012 -0.59232,-0.308106 0,-0.345517 0.40722,-0.02572 0.7404,-0.405269 0.7404,-0.843435 0,-0.438178 0.53308,-1.279108 1.18463,-1.868753 0.81724,-0.739596 1.18463,-1.824318 1.18463,-3.497625 v -2.425542 h 5.47893 5.47893 l 0.18767,2.369266 c 0.10321,1.303097 0.43638,2.622483 0.74039,2.931968 0.304,0.30948 0.55273,1.262559 0.55273,2.117941 0,0.893066 0.63047,2.147527 1.4808,2.946367 0.81443,0.765125 1.48079,1.630251 1.48079,1.922506 0,1.271923 3.11255,3.16075 6.1464,3.729902 1.18032,0.221431 2.14603,0.639477 2.14603,0.928995 0,0.289513 0.66636,0.526398 1.48079,0.526398 0.81444,0 1.48079,0.245367 1.48079,0.545251 0,0.299896 0.79963,0.720885 1.77696,0.935541 0.97732,0.214655 1.77695,0.63565 1.77695,0.93554 0,0.299878 0.65062,0.545251 1.44583,0.545251 0.79521,0 1.61057,0.266543 1.81191,0.592317 0.20134,0.325774 1.81406,0.592317 3.58383,0.592317 2.57626,0 3.36529,-0.236163 3.9576,-1.184634 0.9159,-1.466623 4.26439,-1.605948 5.63584,-0.234498 0.76124,0.761287 0.81171,1.171751 0.25381,2.065077 -0.38294,0.613208 -0.69627,1.470296 -0.69627,1.90463 0,0.910752 2.65044,3.372592 3.63096,3.372592 0.45128,0 0.42694,0.281208 -0.0771,0.888475 -0.40556,0.488661 -1.3711,0.888475 -2.14561,0.888475 -1.09437,0 -1.40829,0.319105 -1.40829,1.431434 0,0.78729 0.33317,1.552646 0.74039,1.700796 0.59208,0.215402 0.59179,0.492292 -0.001,1.382071 -0.40799,0.611987 -1.01091,1.738224 -1.33982,2.502739 -0.32891,0.764515 -1.12795,1.528592 -1.77553,1.697953 -0.64764,0.169349 -1.17752,0.54338 -1.17752,0.831157 0,0.287771 -0.52995,0.523234 -1.17765,0.523234 -0.9159,0 -1.26181,0.526611 -1.55649,2.369267 -0.36042,2.254115 -1.47405,3.114265 -2.30056,1.77695 z"
       style="opacity:1;fill:#2171b5;fill-opacity:1;stroke:#ffffff;stroke-width:1;stroke-miterlimit:4;stroke-dasharray:none;stroke-opacity:1"
       inkscape:connector-curvature="0" />
    <path
       id="path2607"
       d="m 133.40033,299.42727 c -0.0436,-0.28795 -0.36191,-0.52354 -0.70744,-0.52354 -0.39091,0 -0.62825,-0.39556 -0.62825,-1.04708 0,-0.57589 -0.18847,-1.04708 -0.41883,-1.04708 -0.23036,0 -0.41883,-0.65966 -0.41883,-1.46591 0,-1.02381 -0.18947,-1.46591 -0.62825,-1.46591 -0.3909,0 -0.62824,-0.39556 -0.62824,-1.04708 0,-0.57589 -0.18848,-1.04707 -0.41883,-1.04707 -0.23036,0 -0.41884,-0.37695 -0.41884,-0.83767 0,-0.46071 -0.18847,-0.83766 -0.41883,-0.83766 -0.23035,0 -0.41883,-0.28271 -0.41883,-0.62824 0,-0.47468 -0.5119,-0.62825 -2.09415,-0.62825 -1.58226,0 -2.09416,0.15357 -2.09416,0.62825 0,0.43877 -0.4421,0.62824 -1.46591,0.62824 h -1.46591 v -2.96172 c 0,-2.00841 -0.19259,-3.15434 -0.59833,-3.56008 -0.7573,-0.75731 -4.68873,-0.81626 -4.98792,-0.0748 -0.16901,0.41883 -0.21786,0.41883 -0.24432,0 -0.0218,-0.34462 -0.74875,-0.52354 -2.12722,-0.52354 -1.15179,0 -2.09416,-0.18847 -2.09416,-0.41883 0,-0.23036 -0.65966,-0.41883 -1.46591,-0.41883 -1.0238,0 -1.4659,-0.18947 -1.4659,-0.62825 0,-0.47467 -0.51191,-0.62824 -2.09416,-0.62824 -1.58225,0 -2.09416,0.15357 -2.09416,0.62824 0,0.48864 -0.55844,0.62825 -2.51298,0.62825 h -2.51299 v -1.46591 c 0,-1.02381 0.189471,-1.46591 0.628247,-1.46591 0.345535,0 0.628243,-0.20193 0.628243,-0.44875 0,-0.57986 1.06555,-1.6454 1.64541,-1.6454 0.24681,0 0.44875,-0.47119 0.44875,-1.04708 0,-0.57589 0.18847,-1.04708 0.41883,-1.04708 0.23036,0 0.41883,-0.20194 0.41883,-0.44875 0,-0.48812 -1.03104,-1.64541 -1.46591,-1.64541 -0.43487,0 -1.46591,-1.15728 -1.46591,-1.6454 0,-0.24682 -0.390406,-0.44875 -0.867576,-0.44875 -0.927271,0 -2.064239,-0.90629 -2.064239,-1.64541 0,-0.24682 -0.471185,-0.44875 -1.047078,-0.44875 -0.575893,0 -1.047078,-0.18847 -1.047078,-0.41883 0,-0.23036 -0.282711,-0.41883 -0.628246,-0.41883 -0.345536,0 -0.628247,-0.18847 -0.628247,-0.41883 0,-0.23036 0.201935,-0.41883 0.448748,-0.41883 0.739128,0 1.645408,-1.13698 1.645408,-2.06424 0,-0.47718 0.201935,-0.86758 0.448748,-0.86758 0.894397,0 1.645408,-1.22894 1.645408,-2.69249 0,-0.82271 0.188474,-1.49582 0.418831,-1.49582 0.230357,0 0.418831,-0.37695 0.418831,-0.83766 0,-0.46537 0.279222,-0.83767 0.628247,-0.83767 0.356245,0 0.628243,-0.37562 0.628243,-0.86758 0,-0.92725 0.90629,-2.06423 1.64541,-2.06423 0.24681,0 0.44875,-0.71229 0.44875,-1.58287 0,-1.10239 0.25427,-1.76613 0.83766,-2.18662 0.46072,-0.33206 0.83766,-1.03333 0.83766,-1.55837 0,-0.52503 0.20194,-0.95461 0.44875,-0.95461 0.73913,0 1.64541,-1.13698 1.64541,-2.06424 0,-0.47718 0.20194,-0.86758 0.44875,-0.86758 0.73913,0 1.64541,-1.13698 1.64541,-2.06424 0,-0.47717 0.18847,-0.86758 0.41883,-0.86758 0.23035,0 0.41883,-0.47118 0.41883,-1.04708 0,-0.57589 0.20193,-1.04707 0.44875,-1.04707 0.57987,0 1.6454,-1.06555 1.6454,-1.64541 0,-0.24682 0.18848,-0.44875 0.41883,-0.44875 0.23036,0 0.41884,-0.65966 0.41884,-1.46591 0,-1.45815 0.01,-1.46591 1.88474,-1.46591 1.87476,0 1.88474,0.008 1.88474,1.46591 0,1.02381 0.18947,1.46591 0.62824,1.46591 0.34554,0 0.62825,0.28271 0.62825,0.62825 0,0.35624 0.37562,0.62824 0.86758,0.62824 1.04103,0 2.06424,0.93425 2.06424,1.88474 0,0.77708 0.96701,1.88474 1.64541,1.88474 0.2468,0 0.44874,0.20194 0.44874,0.44875 0,0.57986 1.06555,1.64541 1.64541,1.64541 0.24681,0 0.44875,0.47118 0.44875,1.04708 0,0.97727 0.13961,1.04708 2.09416,1.04708 1.17758,0 2.09415,-0.19165 2.09415,-0.43787 0,-1.02975 2.07895,-2.49395 3.54103,-2.49395 1.04074,0 1.48495,-0.18794 1.48495,-0.62825 0,-0.34554 0.18847,-0.62825 0.41883,-0.62825 0.23035,0 0.41883,-0.37694 0.41883,-0.83766 0,-0.46071 0.14687,-0.83766 0.32637,-0.83766 0.1795,0 0.59806,0.37695 0.93012,0.83766 0.33207,0.46072 0.84486,0.83766 1.13954,0.83766 0.29468,0 0.53579,0.28271 0.53579,0.62825 0,0.34554 0.18847,0.62825 0.41883,0.62825 0.23035,0 0.41883,0.65966 0.41883,1.46591 0,0.80625 0.18847,1.46591 0.41883,1.46591 0.23036,0 0.41883,0.65965 0.41883,1.4659 0,0.80625 0.20194,1.46591 0.44875,1.46591 0.57987,0 1.64541,1.06555 1.64541,1.64541 0,0.24682 0.20193,0.44875 0.44875,0.44875 0.57987,0 1.6454,1.06554 1.6454,1.64541 0,0.26925 1.0052,0.44875 2.51299,0.44875 1.95455,0 2.51299,-0.13961 2.51299,-0.62825 0,-0.34554 0.20193,-0.62825 0.44874,-0.62825 0.24682,0 0.718,-0.26925 1.04708,-0.59833 0.32909,-0.32909 0.59833,-0.80027 0.59833,-1.04708 0,-0.24681 0.20194,-0.44874 0.44875,-0.44874 0.93779,0 1.64541,-1.26087 1.64541,-2.93182 0,-2.35017 0.70035,-2.93182 3.53015,-2.93182 1.28341,0 2.33348,-0.18847 2.33348,-0.41883 0,-0.23036 0.28272,-0.41883 0.62825,-0.41883 0.34554,0 0.62825,-0.28271 0.62825,-0.62825 0,-0.34554 0.18847,-0.62825 0.41883,-0.62825 0.23036,0 0.41883,-0.37694 0.41883,-0.83766 0,-0.46071 0.18847,-0.83766 0.41883,-0.83766 0.23036,0 0.41883,-0.47119 0.41883,-1.04708 0,-0.83766 0.20942,-1.04708 1.04708,-1.04708 0.83766,0 1.04708,0.20942 1.04708,1.04708 0,0.96176 0.15357,1.04708 1.88474,1.04708 1.81493,0 1.88474,0.0465 1.88474,1.25649 0,1.06104 -0.16288,1.2565 -1.04708,1.2565 -0.65152,0 -1.04708,0.23734 -1.04708,0.62824 0,0.34903 -0.37229,0.62825 -0.83766,0.62825 -0.55844,0 -0.83766,0.27922 -0.83766,0.83766 0,0.46537 -0.27922,0.83766 -0.62825,0.83766 -0.34553,0 -0.62824,0.28272 -0.62824,0.62825 0,0.34903 -0.3723,0.62825 -0.83767,0.62825 -0.72081,0 -0.83766,0.27922 -0.83766,2.00169 0,1.52123 0.20106,2.14662 0.83766,2.60545 0.86517,0.62358 1.15929,2.09416 0.41883,2.09416 -0.23035,0 -0.41883,0.75389 -0.41883,1.67532 0,0.92143 -0.18847,1.67533 -0.41883,1.67533 -0.23036,0 -0.41883,0.37694 -0.41883,0.83766 0,0.46537 -0.27922,0.83766 -0.62825,0.83766 -0.34553,0 -0.62824,0.28271 -0.62824,0.62825 0,0.34553 -0.18848,0.62824 -0.41883,0.62824 -0.23036,0 -0.41884,0.47119 -0.41884,1.04708 0,0.57589 -0.20193,1.04708 -0.44874,1.04708 -0.73913,0 -1.64541,1.13698 -1.64541,2.06424 0,0.47717 0.18847,0.86758 0.41883,0.86758 0.79814,0 0.45834,2.71842 -0.41883,3.35065 -0.46072,0.33206 -0.83766,0.84486 -0.83766,1.13954 0,0.34586 -0.59386,0.53578 -1.67533,0.53578 -0.92143,0 -1.67532,0.18848 -1.67532,0.41883 0,0.23036 -0.65966,0.41883 -1.46591,0.41883 -1.3961,0 -1.46591,0.0698 -1.46591,1.46591 0,0.80625 -0.18847,1.46591 -0.41883,1.46591 -0.23036,0 -0.41883,0.47119 -0.41883,1.04708 0,1.01716 -0.0838,1.04708 -2.93182,1.04708 -1.67533,0 -2.93182,0.1795 -2.93182,0.41883 0,0.23036 -0.28271,0.41883 -0.62825,0.41883 -0.34553,0 -0.62824,0.28271 -0.62824,0.62825 0,0.39091 -0.39556,0.62824 -1.04708,0.62824 -0.90401,0 -1.04708,0.18766 -1.04708,1.37345 0,0.89298 -0.29304,1.58466 -0.83766,1.9772 -0.46072,0.33207 -0.83766,0.84486 -0.83766,1.13954 0,0.29468 -0.28271,0.53579 -0.62825,0.53579 -0.46537,0 -0.62825,0.48864 -0.62825,1.88474 0,1.03661 -0.18847,1.88474 -0.41883,1.88474 -0.24199,0 -0.41883,1.3263 -0.41883,3.14123 0,2.46495 -0.13076,3.14124 -0.60735,3.14124 -0.44264,0 -0.64833,0.65312 -0.75846,2.40828 -0.0831,1.32455 -0.18676,2.17268 -0.23032,1.88474 z"
       style="opacity:1;fill:#2171b5;fill-opacity:1;stroke:#ffffff;stroke-width:1;stroke-miterlimit:4;stroke-dasharray:none;stroke-opacity:1"
       inkscape:connector-curvature="0" />
    <g
       style="fill:#08306b;fill-opacity:1;stroke:#ffffff;stroke-width:1;stroke-miterlimit:4;stroke-dasharray:none;stroke-opacity:1"
       id="g2625">
      <g
         style="fill:#08306b;fill-opacity:1;stroke:#ffffff;stroke-width:1;stroke-miterlimit:4;stroke-dasharray:none;stroke-opacity:1"
         id="g2613"
         transform="translate(1.2564935)">
        <path
           id="path2611"
           d="m 76.011249,260.50751 c -3.848108,-4.05387 -1.76889,-4.19454 -8.83913,-7.87242 0,1.3961 -4.400768,-4.82876 -4.633454,-4.82876 -0.230357,0 -0.418831,-0.18847 -0.418831,-0.41883 0,-0.23035 -0.471185,-0.41883 -1.047078,-0.41883 -0.810618,0 -1.047078,-0.21558 -1.047078,-0.95461 0,-0.52504 -0.376948,-1.22631 -0.837662,-1.55838 -0.460714,-0.33206 -0.837662,-0.84485 -0.837662,-1.13953 0,-0.29469 -0.471186,-0.53579 -1.047078,-0.53579 -0.575893,0 -1.047078,-0.18847 -1.047078,-0.41883 0,-0.23036 -0.39041,-0.41883 -0.86758,-0.41883 -0.927258,0 -2.064239,-0.90629 -2.064239,-1.64541 0,-0.24682 -0.201935,-0.44875 -0.448748,-0.44875 -0.579859,0 -1.645407,-1.06554 -1.645407,-1.64541 0,-0.24681 -0.197039,-0.44874 -0.437867,-0.44874 -0.240833,0 -0.900487,-0.46262 -1.465909,-1.02805 -0.565427,-0.56541 -1.028043,-1.22508 -1.028043,-1.4659 0,-0.24083 -0.282711,-0.43787 -0.628246,-0.43787 -0.349025,0 -0.628247,-0.3723 -0.628247,-0.83766 0,-0.46537 0.279222,-0.83767 0.628247,-0.83767 0.345535,0 0.628246,-0.18847 0.628246,-0.41883 0,-0.23035 0.65966,-0.41883 1.46591,-0.41883 0.80625,0 1.465909,-0.20193 1.465909,-0.44875 0,-0.2468 0.269249,-0.71799 0.598329,-1.04708 0.329089,-0.32907 0.800269,-0.59832 1.047078,-0.59832 0.246817,0 0.448748,-0.24111 0.448748,-0.53579 0,-0.29468 0.376949,-0.80747 0.837663,-1.13954 0.460714,-0.33207 0.837662,-1.03333 0.837662,-1.55837 0,-0.88753 0.176596,-0.95462 2.512987,-0.95462 1.396103,0 2.512987,-0.18614 2.512987,-0.41883 0,-0.23035 0.659659,-0.41883 1.465909,-0.41883 0.80625,0 1.465909,-0.18847 1.465909,-0.41883 0,-0.23036 0.471185,-0.41883 1.047078,-0.41883 0.651517,0 1.047078,-0.23734 1.047078,-0.62825 0,-0.34553 0.282711,-0.62824 0.628247,-0.62824 0.488638,0 0.628247,-0.55844 0.628247,-2.51299 0,-1.3961 0.186145,-2.51299 0.418831,-2.51299 0.232686,0 0.418831,-1.11688 0.418831,-2.51299 0,-1.3961 -0.186145,-2.51298 -0.418831,-2.51298 -0.232686,0 -0.418831,-1.11689 -0.418831,-2.51299 0,-1.95455 -0.139609,-2.51299 -0.628247,-2.51299 -0.345536,0 -0.628247,-0.28271 -0.628247,-0.62824 0,-0.39091 -0.395561,-0.62825 -1.047078,-0.62825 -0.575893,0 -1.047078,-0.18847 -1.047078,-0.41883 0,-0.23036 -0.376948,-0.41883 -0.837662,-0.41883 -0.614287,0 -0.837662,-0.27922 -0.837662,-1.04708 0,-0.57589 -0.197039,-1.04708 -0.437867,-1.04708 -0.240832,0 -0.900487,-0.46262 -1.465909,-1.02804 -0.565427,-0.56542 -1.028042,-1.22508 -1.028042,-1.46591 0,-0.24082 -0.753897,-0.43787 -1.675325,-0.43787 -0.921429,0 -1.675325,-0.18847 -1.675325,-0.41883 0,-0.23036 -0.376948,-0.41883 -0.837662,-0.41883 -0.465368,0 -0.837663,-0.27922 -0.837663,-0.62825 0,-0.34553 -0.282711,-0.62824 -0.628246,-0.62824 -0.349025,0 -0.628247,-0.3723 -0.628247,-0.83766 0,-0.46072 -0.188474,-0.83767 -0.418831,-0.83767 -0.230357,0 -0.418831,-0.47118 -0.418831,-1.04708 0,-0.65151 -0.237339,-1.04707 -0.628247,-1.04707 -0.506086,0 -0.628247,-0.65152 -0.628247,-3.35065 v -3.35065 l 2.931818,0 c 1.675325,0 2.931819,0.1795 2.931819,0.41883 0,0.23036 0.94237,0.41883 2.094155,0.41883 1.151786,0 2.094156,-0.18847 2.094156,-0.41883 0,-0.23036 0.282711,-0.41883 0.628247,-0.41883 0.345536,0 0.628247,-0.28271 0.628247,-0.62825 0,-0.34553 0.188474,-0.62825 0.418831,-0.62825 0.230357,0 0.418831,0.28272 0.418831,0.62825 0,0.48864 0.55844,0.62825 2.512987,0.62825 1.954547,0 2.512987,-0.13961 2.512987,-0.62825 0,-0.34553 0.188474,-0.62825 0.418831,-0.62825 0.239333,0 0.418831,-1.25649 0.418831,-2.93181 0,-1.80563 0.172375,-2.93182 0.448749,-2.93182 1.193028,0 1.645407,-1.25842 1.645407,-4.57723 0,-2.72573 0.121696,-3.38056 0.628247,-3.38056 0.345536,0 0.628247,-0.24111 0.628247,-0.53579 0,-0.29468 0.376948,-0.80747 0.837662,-1.13954 0.613102,-0.4419 0.837662,-1.08422 0.837662,-2.39603 0,-1.63255 0.09332,-1.79228 1.047078,-1.79228 0.651517,0 1.047078,-0.23734 1.047078,-0.62825 0,-0.34553 0.201936,-0.62824 0.448749,-0.62824 0.579859,0 1.645407,-1.06555 1.645407,-1.64541 0,-0.25263 0.823703,-0.44875 1.88474,-0.44875 l 1.884741,0 v -3.35065 -3.35065 l 1.675324,0 c 1.081464,0 1.675325,-0.18992 1.675325,-0.53578 0,-0.29469 0.376948,-0.80748 0.837662,-1.13954 0.460715,-0.33207 0.837663,-0.84486 0.837663,-1.13954 0,-0.29468 0.471185,-0.53579 1.047078,-0.53579 0.575892,0 1.047078,-0.18847 1.047078,-0.41883 0,-0.23036 0.201935,-0.41883 0.448748,-0.41883 0.488131,0 1.645407,-1.03104 1.645407,-1.46591 0,-0.43487 1.157285,-1.46591 1.645408,-1.46591 0.246805,0 0.448748,-0.47118 0.448748,-1.04708 0,-0.57589 0.188474,-1.04707 0.418831,-1.04707 0.230358,0 0.418832,-0.65966 0.418832,-1.46591 0,-0.80625 0.188474,-1.46591 0.418831,-1.46591 0.230357,0 0.418831,-0.47119 0.418831,-1.04708 0,-0.65152 0.237339,-1.04708 0.628247,-1.04708 0.438776,0 0.628246,-0.4421 0.628246,-1.46591 0,-0.80625 0.188474,-1.46591 0.418832,-1.46591 0.230357,0 0.418831,0.18848 0.418831,0.41883 0,0.25775 2.094156,0.41884 5.444811,0.41884 3.35065,0 5.4448,0.16109 5.4448,0.41883 0,0.23035 -0.47118,0.41883 -1.04708,0.41883 -0.88419,0 -1.04707,0.19545 -1.04707,1.25649 0,0.83766 0.20941,1.2565 0.62824,1.2565 0.34903,0 0.62825,0.37229 0.62825,0.83766 0,0.46537 -0.27922,0.83766 -0.62825,0.83766 -0.42207,0 -0.62824,0.42216 -0.62824,1.28641 0,1.63536 -0.84771,2.48307 -2.48307,2.48307 -1.09295,0 -1.28641,0.15747 -1.28641,1.04708 0,0.83766 -0.20942,1.04708 -1.04708,1.04708 -0.651522,0 -1.047083,0.23734 -1.047083,0.62824 0,0.39091 -0.395561,0.62825 -1.047078,0.62825 -0.575893,0 -1.047078,0.18847 -1.047078,0.41883 0,0.23036 -0.471185,0.41883 -1.047078,0.41883 -0.837662,0 -1.047078,0.20942 -1.047078,1.04708 0,0.57589 -0.188474,1.04708 -0.418831,1.04708 -0.230357,0 -0.418831,0.65966 -0.418831,1.46591 0,0.80625 -0.188474,1.46591 -0.418831,1.46591 -0.230357,0 -0.418831,0.47118 -0.418831,1.04707 0,0.5759 -0.201936,1.04708 -0.448749,1.04708 -0.739128,0 -1.645407,1.13698 -1.645407,2.06424 0,0.49196 -0.272002,0.86758 -0.628247,0.86758 -0.390908,0 -0.628247,0.39556 -0.628247,1.04708 0,0.57589 -0.188474,1.04708 -0.418831,1.04708 -0.230357,0 -0.418831,0.37694 -0.418831,0.83766 0,0.46071 -0.188474,0.83766 -0.418831,0.83766 -0.230357,0 -0.418831,0.47119 -0.418831,1.04708 0,0.65152 -0.23734,1.04708 -0.628247,1.04708 -0.474674,0 -0.628247,0.5119 -0.628247,2.09415 0,1.15179 -0.188474,2.09416 -0.418831,2.09416 -0.232686,0 -0.418831,1.11688 -0.418831,2.51299 0,1.3961 0.186145,2.51298 0.418831,2.51298 0.239333,0 0.418831,1.2565 0.418831,2.93182 0,2.32684 0.129637,2.93182 0.628247,2.93182 0.345535,0 0.628247,0.28271 0.628247,0.62825 0,0.34553 0.188474,0.62824 0.418831,0.62824 0.230357,0 0.418831,0.39041 0.418831,0.86758 0,1.24701 0.994879,2.06424 2.512987,2.06424 1.518108,0 2.512987,0.81722 2.512987,2.06424 0,0.47717 0.188474,0.86758 0.418831,0.86758 0.230357,0 0.418831,0.28271 0.418831,0.62825 0,0.34553 0.282711,0.62824 0.628247,0.62824 0.422077,0 0.628247,0.42216 0.628247,1.28641 0,1.28329 0.795033,2.48307 1.645407,2.48307 0.246805,0 0.448749,0.47119 0.448749,1.04708 0,0.57589 0.188474,1.04708 0.418831,1.04708 0.230357,0 0.418831,0.47118 0.418831,1.04708 0,1.03476 0.04188,1.04707 3.560063,1.04707 2.88529,0 3.56007,-0.11907 3.56007,-0.62824 0,-0.46537 0.48864,-0.62825 1.88474,-0.62825 1.3961,0 1.88474,0.16288 1.88474,0.62825 0,0.34553 0.2411,0.62824 0.53579,0.62824 0.29468,0 0.80747,0.37695 1.13953,0.83767 0.39255,0.54462 1.08423,0.83766 1.97721,0.83766 1.18579,0 1.37344,0.14306 1.37344,1.04708 0,0.57589 0.18848,1.04707 0.41884,1.04707 0.23035,0 0.41883,0.28272 0.41883,0.62825 0,0.34554 0.28271,0.62825 0.62824,0.62825 0.34903,0 0.62825,0.37229 0.62825,0.83766 0,0.46072 0.18847,0.83766 0.41883,0.83766 0.23036,0 0.41883,0.47119 0.41883,1.04708 0,0.65152 0.23734,1.04708 0.62825,1.04708 0.34554,0 0.62825,0.28271 0.62825,0.62825 0,0.34553 0.18847,0.62824 0.41883,0.62824 0.23035,0 0.41883,0.37695 0.41883,0.83766 0,0.46072 0.18847,0.83767 0.41883,0.83767 0.23036,0 0.41883,0.28271 0.41883,0.62824 0,0.39091 0.39556,0.62825 1.04708,0.62825 0.57589,0 1.04708,0.18847 1.04708,0.41883 0,0.23036 0.67312,0.41883 1.49582,0.41883 1.46356,0 2.69249,-0.75102 2.69249,-1.6454 0,-0.24682 0.65966,-0.44875 1.46591,-0.44875 1.20353,0 1.46591,0.15528 1.46591,0.86758 0,1.11107 -0.95317,2.06424 -2.06424,2.06424 -0.64619,0 -0.86758,0.26718 -0.86758,1.04707 0,0.91744 -0.18149,1.04708 -1.46591,1.04708 -0.80625,0 -1.46591,0.18848 -1.46591,0.41883 0,0.23036 -0.47118,0.41883 -1.04708,0.41883 -0.83766,0 -1.04708,0.20942 -1.04708,1.04708 0,0.83766 -0.20941,1.04708 -1.04707,1.04708 -0.5759,0 -1.04708,0.18847 -1.04708,0.41883 0,0.23036 -0.47119,0.41883 -1.04708,0.41883 -0.65152,0 -1.04708,0.23734 -1.04708,0.62825 0,0.43877 -0.4421,0.62825 -1.46591,0.62825 -0.80625,0 -1.46591,0.18847 -1.46591,0.41883 0,0.23035 -0.3904,0.41883 -0.86758,0.41883 -1.24702,0 -2.06423,0.99488 -2.06423,2.51298 0,1.30897 -0.78835,2.51299 -1.64541,2.51299 -0.24681,0 -0.44875,0.39041 -0.44875,0.86758 0,0.92726 -0.90629,2.06424 -1.64541,2.06424 -0.2468,0 -0.44875,0.7539 -0.44875,1.67532 0,0.92143 0.20194,1.67533 0.44875,1.67533 0.6673,0 1.64541,1.10261 1.64541,1.85482 0,0.362 -0.18847,0.65817 -0.41883,0.65817 -0.23036,0 -0.41883,0.47118 -0.41883,1.04707 0,0.83767 -0.20942,1.04708 -1.04708,1.04708 -0.91744,0 -1.04708,0.18149 -1.04708,1.46591 0,0.80625 -0.18847,1.46591 -0.41883,1.46591 -0.23036,0 -0.41883,0.28271 -0.41883,0.62825 0,0.34553 -0.28271,0.62824 -0.62825,0.62824 -0.35624,0 -0.62824,0.37562 -0.62824,0.86758 0,0.92726 -0.90629,2.06424 -1.64541,2.06424 -0.24681,0 -0.44875,0.42958 -0.44875,0.95462 0,0.52504 -0.37695,1.2263 -0.83766,1.55837 -0.46072,0.33207 -0.83766,1.03333 -0.83766,1.55837 0,0.56932 -0.25357,0.95462 -0.62825,0.95462 -0.39091,0 -0.628251,0.39556 -0.628251,1.04707 0,0.5759 -0.188474,1.04708 -0.418831,1.04708 -0.230357,0 -0.418831,0.37695 -0.418831,0.83766 0,0.46072 -0.188474,0.83767 -0.418831,0.83767 -0.230357,0 -0.418831,0.47118 -0.418831,1.04707 0,0.65152 -0.237339,1.04708 -0.628247,1.04708 -0.390908,0 -0.628247,0.39556 -0.628247,1.04708 0,0.57589 -0.188474,1.04708 -0.418831,1.04708 -0.230357,0 -0.418831,0.47118 -0.418831,1.04708 0,0.65151 -0.237339,1.04707 -0.628247,1.04707 -0.390908,0 -0.628247,0.39556 -0.628247,1.04708 0,0.57589 -0.188474,1.04708 -0.418831,1.04708 -0.230357,0 -0.418831,0.37695 -0.418831,0.83766 0,0.75789 -0.279222,0.83766 -2.931818,0.83766 H 88.08737 Z"
           style="opacity:1;fill:#08306b;fill-opacity:1;stroke:#ffffff;stroke-width:1;stroke-miterlimit:4;stroke-dasharray:none;stroke-opacity:1"
           inkscape:connector-curvature="0"
           sodipodi:nodetypes="ccsssscsssssssscssssssscssssssssssssssssssssssscssssssssssscsssssssssssssssscsssssscccsscsssssssssssssssssssssssssssssssssssssssssssssssssssssssssssssssssssscsssssssssssssssssssssssssssssssssssssssssssssssssscsssssssssssssssscc" />
      </g>
    </g>
    <path
       id="path2623"
       d="m 174.03369,124.9093 c -0.971,-1.38628 -2.39109,-1.75862 -7.96021,-2.08716 -4.02871,-0.23766 -6.98661,-0.0629 -7.29174,0.4308 -0.28233,0.45686 -1.62197,0.83066 -2.97693,0.83066 -1.87009,0 -2.46354,-0.38708 -2.46354,-1.60682 0,-2.85413 -0.97304,-4.25682 -2.95293,-4.25682 -3.35389,0 -4.58604,-0.90555 -4.58604,-3.37047 0,-1.29446 -0.34907,-2.4792 -0.77572,-2.63278 -0.42663,-0.15358 -1.03294,-1.31582 -1.34731,-2.58279 -0.56036,-2.25842 -0.4971,-2.30357 3.22792,-2.30357 3.10692,0 4.11595,-0.4023 5.53562,-2.20712 2.99979,-3.81364 1.86884,-7.844828 -2.20089,-7.844828 -1.05964,0 -1.92663,-0.376948 -1.92663,-0.837662 0,-0.460714 -0.48221,-0.837663 -1.07157,-0.837663 -0.58936,0 -1.61495,-0.753896 -2.27908,-1.675324 -0.96641,-1.340821 -2.2159,-1.688526 -6.25797,-1.741458 -2.77776,-0.03637 -4.57928,-0.256258 -4.00339,-0.488634 0.57589,-0.232376 1.04708,-1.333466 1.04708,-2.446853 0,-1.953496 -0.21258,-2.024756 -6.07306,-2.035788 -8.66075,-0.01631 -10.13657,-0.525792 -9.4063,-3.247165 0.32268,-1.202414 0.68075,-3.591871 0.79576,-5.309899 0.11498,-1.718037 0.58023,-3.602778 1.03384,-4.188312 0.4536,-0.585543 1.07608,-1.766429 1.38327,-2.624195 0.47942,-1.338626 1.10634,-1.477419 4.42544,-0.979688 5.44404,0.816377 5.93803,1.099742 6.94295,3.982448 l 0.89426,2.565358 5.23733,-0.710615 c 2.88051,-0.390836 9.48754,-0.600721 14.68231,-0.46641 5.68072,0.146867 11.08481,-0.176068 13.55942,-0.810296 4.05832,-1.040117 4.14653,-1.020566 6.47056,1.433651 4.36438,4.60881 8.04536,5.213183 19.20272,3.152818 2.20735,-0.407606 3.05373,-0.02057 5.52942,2.52856 1.60774,1.655413 3.35624,3.009854 3.88559,3.009854 0.52936,0 0.96246,0.753897 0.96246,1.675325 0,1.228574 -0.55844,1.675325 -2.09416,1.675325 -1.64656,0 -2.09415,0.425666 -2.09415,1.991592 0,2.231977 -1.10589,3.367688 -4.18831,4.301254 -1.15179,0.348844 -2.3711,1.054634 -2.70958,1.568431 -0.4325,0.656517 -0.61923,0.622952 -0.62825,-0.112901 -0.007,-0.575892 -0.95519,-1.047078 -2.10698,-1.047078 -1.30303,0 -2.09415,0.474679 -2.09415,1.256494 0,0.691071 -0.55825,1.256493 -1.24054,1.256493 -1.23491,0 -1.54132,0.846182 -2.53606,7.003616 -0.3461,2.14223 -1.03804,3.36896 -2.04951,3.63347 -1.23407,0.3227 -1.59456,1.4598 -1.87901,5.92689 -0.20668,3.24614 -0.76364,5.66479 -1.34939,5.86004 -0.54859,0.18287 -0.99744,0.86649 -0.99744,1.51916 0,1.08001 -2.83605,4.53734 -3.72199,4.53734 -0.20423,0 -0.90315,-0.75927 -1.55314,-1.68727 z"
       style="opacity:1;fill:#2171b5;fill-opacity:1;stroke:#ffffff;stroke-width:1;stroke-miterlimit:4;stroke-dasharray:none;stroke-opacity:1"
       inkscape:connector-curvature="0" />
  </g>
</svg>
